999
"DXF R12 Output" (www.mydxf.blogspot.com)
 0 
SECTION
 2 
HEADER
 9 
$ACADVER
 1 
AC1009
 9 
$EXTMIN
 10 
 0 
 20 
 0 
 9 
$EXTMAX
 10 
 8.5 
 20 
 11 
 0 
ENDSEC
 0 
SECTION
 2 
ENTITIES
0
LINE
8
Layer 1
10
0.846666
20
71.402300
11
-0.846666
21
69.708900
0
LINE
8
Layer 1
10
0.000000
20
71.966700
11
0.000000
21
69.144500
0
LINE
8
Layer 1
10
2.257780
20
69.426700
11
1.128890
21
68.297810
0
LINE
8
Layer 1
10
1.693330
20
69.991200
11
0.564440
21
68.862310
0
LINE
8
Layer 1
10
1.128890
20
70.555600
11
0.000000
21
69.426710
0
LINE
8
Layer 1
10
0.846666
20
71.402300
11
-0.846666
21
69.708900
0
LINE
8
Layer 1
10
0.000000
20
71.966700
11
0.000000
21
69.144500
0
LINE
8
Layer 1
10
2.257780
20
69.426700
11
1.128890
21
68.297810
0
LINE
8
Layer 1
10
1.693330
20
69.991200
11
0.564440
21
68.862310
0
LINE
8
Layer 1
10
1.128890
20
70.555600
11
0.000000
21
69.426710
0
LINE
8
Layer 1
10
0.846666
20
71.402300
11
-0.846666
21
69.708900
0
LINE
8
Layer 1
10
0.000000
20
71.966700
11
0.000000
21
69.144500
0
LINE
8
Layer 1
10
2.257780
20
69.426700
11
1.128890
21
68.297810
0
LINE
8
Layer 1
10
1.693330
20
69.991200
11
0.564440
21
68.862310
0
LINE
8
Layer 1
10
1.128890
20
70.555600
11
0.000000
21
69.426710
0
LINE
8
Layer 1
10
0.846666
20
71.402300
11
-0.846666
21
69.708900
0
LINE
8
Layer 1
10
0.000000
20
71.966700
11
0.000000
21
69.144500
0
LINE
8
Layer 1
10
2.257780
20
69.426700
11
1.128890
21
68.297810
0
LINE
8
Layer 1
10
1.693330
20
69.991200
11
0.564440
21
68.862310
0
LINE
8
Layer 1
10
1.128890
20
70.555600
11
0.000000
21
69.426710
0
LINE
8
Layer 1
10
0.846666
20
71.402300
11
-0.846666
21
69.708900
0
LINE
8
Layer 1
10
0.000000
20
71.966700
11
0.000000
21
69.144500
0
LINE
8
Layer 1
10
2.257780
20
69.426700
11
1.128890
21
68.297810
0
LINE
8
Layer 1
10
1.693330
20
69.991200
11
0.564440
21
68.862310
0
LINE
8
Layer 1
10
1.128890
20
70.555600
11
0.000000
21
69.426710
0
LINE
8
Pad
10
0.000000
20
-246.244000
11
0.000000
21
-246.244000
0
LINE
8
Pad
10
10.666700
20
-246.244000
11
10.666700
21
-246.244000
0
LINE
8
Pad
10
0.000000
20
-246.244000
11
10.666700
21
-246.244000
0
LINE
8
Pad
10
0.000000
20
-246.244000
11
10.666700
21
-246.244000
0
LINE
8
Pad
10
10.666700
20
-246.244000
11
10.666700
21
-246.244000
0
LINE
8
Pad
10
10.666700
20
-243.044000
11
10.666700
21
-243.044000
0
LINE
8
Pad
10
10.666700
20
-246.244000
11
10.666700
21
-243.044000
0
LINE
8
Pad
10
10.666700
20
-246.244000
11
10.666700
21
-243.044000
0
LINE
8
Pad
10
10.666700
20
-243.044000
11
10.666700
21
-243.044000
0
LINE
8
Pad
10
21.333300
20
-243.044000
11
21.333300
21
-243.044000
0
LINE
8
Pad
10
10.666700
20
-243.044000
11
21.333300
21
-243.044000
0
LINE
8
Pad
10
10.666700
20
-243.044000
11
21.333300
21
-243.044000
0
LINE
8
Pad
10
21.333300
20
-243.044000
11
21.333300
21
-243.044000
0
LINE
8
Pad
10
21.333300
20
-246.244000
11
21.333300
21
-246.244000
0
LINE
8
Pad
10
21.333300
20
-243.044000
11
21.333300
21
-246.244000
0
LINE
8
Pad
10
21.333300
20
-243.044000
11
21.333300
21
-246.244000
0
LINE
8
Pad
10
21.333300
20
-246.244000
11
21.333300
21
-246.244000
0
LINE
8
Pad
10
32.000000
20
-246.244000
11
32.000000
21
-246.244000
0
LINE
8
Pad
10
21.333300
20
-246.244000
11
32.000000
21
-246.244000
0
LINE
8
Pad
10
21.333300
20
-246.244000
11
32.000000
21
-246.244000
0
LINE
8
Pad
10
32.000000
20
-246.244000
11
32.000000
21
-246.244000
0
LINE
8
Pad
10
32.000000
20
-243.044000
11
32.000000
21
-243.044000
0
LINE
8
Pad
10
32.000000
20
-246.244000
11
32.000000
21
-243.044000
0
LINE
8
Pad
10
32.000000
20
-246.244000
11
32.000000
21
-243.044000
0
LINE
8
Pad
10
32.000000
20
-243.044000
11
32.000000
21
-243.044000
0
LINE
8
Pad
10
42.666600
20
-243.044000
11
42.666600
21
-243.044000
0
LINE
8
Pad
10
32.000000
20
-243.044000
11
42.666600
21
-243.044000
0
LINE
8
Pad
10
32.000000
20
-243.044000
11
42.666600
21
-243.044000
0
LINE
8
Pad
10
42.666600
20
-243.044000
11
42.666600
21
-243.044000
0
LINE
8
Pad
10
42.666600
20
-246.244000
11
42.666600
21
-246.244000
0
LINE
8
Pad
10
42.666600
20
-243.044000
11
42.666600
21
-246.244000
0
LINE
8
Pad
10
42.666600
20
-243.044000
11
42.666600
21
-246.244000
0
LINE
8
Pad
10
42.666600
20
-246.244000
11
42.666600
21
-246.244000
0
LINE
8
Pad
10
53.333300
20
-246.244000
11
53.333300
21
-246.244000
0
LINE
8
Pad
10
42.666600
20
-246.244000
11
53.333300
21
-246.244000
0
LINE
8
Pad
10
42.666600
20
-246.244000
11
53.333300
21
-246.244000
0
LINE
8
Pad
10
53.333300
20
-246.244000
11
53.333300
21
-246.244000
0
LINE
8
Pad
10
53.333300
20
-243.044000
11
53.333300
21
-243.044000
0
LINE
8
Pad
10
53.333300
20
-246.244000
11
53.333300
21
-243.044000
0
LINE
8
Pad
10
53.333300
20
-246.244000
11
53.333300
21
-243.044000
0
LINE
8
Pad
10
53.333300
20
-243.044000
11
53.333300
21
-243.044000
0
LINE
8
Pad
10
63.999900
20
-243.044000
11
63.999900
21
-243.044000
0
LINE
8
Pad
10
53.333300
20
-243.044000
11
63.999900
21
-243.044000
0
LINE
8
Pad
10
53.333300
20
-243.044000
11
63.999900
21
-243.044000
0
LINE
8
Pad
10
63.999900
20
-243.044000
11
63.999900
21
-243.044000
0
LINE
8
Pad
10
63.999900
20
-246.244000
11
63.999900
21
-246.244000
0
LINE
8
Pad
10
63.999900
20
-243.044000
11
63.999900
21
-246.244000
0
LINE
8
Pad
10
63.999900
20
-243.044000
11
63.999900
21
-246.244000
0
LINE
8
Pad
10
63.999900
20
-246.244000
11
63.999900
21
-246.244000
0
LINE
8
Pad
10
74.666600
20
-246.244000
11
74.666600
21
-246.244000
0
LINE
8
Pad
10
63.999900
20
-246.244000
11
74.666600
21
-246.244000
0
LINE
8
Pad
10
63.999900
20
-246.244000
11
74.666600
21
-246.244000
0
LINE
8
Pad
10
74.666600
20
-246.244000
11
74.666600
21
-246.244000
0
LINE
8
Pad
10
74.666600
20
-235.577000
11
74.666600
21
-235.577000
0
LINE
8
Pad
10
74.666600
20
-246.244000
11
74.666600
21
-235.577000
0
LINE
8
Pad
10
74.666600
20
-246.244000
11
74.666600
21
-235.577000
0
LINE
8
Pad
10
74.666600
20
-235.577000
11
74.666600
21
-235.577000
0
LINE
8
Pad
10
71.466600
20
-235.577000
11
71.466600
21
-235.577000
0
LINE
8
Pad
10
74.666600
20
-235.577000
11
71.466600
21
-235.577000
0
LINE
8
Pad
10
74.666600
20
-235.577000
11
71.466600
21
-235.577000
0
LINE
8
Pad
10
71.466600
20
-235.577000
11
71.466600
21
-235.577000
0
LINE
8
Pad
10
71.466600
20
-224.911000
11
71.466600
21
-224.911000
0
LINE
8
Pad
10
71.466600
20
-235.577000
11
71.466600
21
-224.911000
0
LINE
8
Pad
10
71.466600
20
-235.577000
11
71.466600
21
-224.911000
0
LINE
8
Pad
10
71.466600
20
-224.911000
11
71.466600
21
-224.911000
0
LINE
8
Pad
10
74.666600
20
-224.911000
11
74.666600
21
-224.911000
0
LINE
8
Pad
10
71.466600
20
-224.911000
11
74.666600
21
-224.911000
0
LINE
8
Pad
10
71.466600
20
-224.911000
11
74.666600
21
-224.911000
0
LINE
8
Pad
10
74.666600
20
-224.911000
11
74.666600
21
-224.911000
0
LINE
8
Pad
10
74.666600
20
-214.244000
11
74.666600
21
-214.244000
0
LINE
8
Pad
10
74.666600
20
-224.911000
11
74.666600
21
-214.244000
0
LINE
8
Pad
10
74.666600
20
-224.911000
11
74.666600
21
-214.244000
0
LINE
8
Pad
10
74.666600
20
-214.244000
11
74.666600
21
-214.244000
0
LINE
8
Pad
10
71.466600
20
-214.244000
11
71.466600
21
-214.244000
0
LINE
8
Pad
10
74.666600
20
-214.244000
11
71.466600
21
-214.244000
0
LINE
8
Pad
10
74.666600
20
-214.244000
11
71.466600
21
-214.244000
0
LINE
8
Pad
10
71.466600
20
-214.244000
11
71.466600
21
-214.244000
0
LINE
8
Pad
10
71.466600
20
-203.578000
11
71.466600
21
-203.578000
0
LINE
8
Pad
10
71.466600
20
-214.244000
11
71.466600
21
-203.578000
0
LINE
8
Pad
10
71.466600
20
-214.244000
11
71.466600
21
-203.578000
0
LINE
8
Pad
10
71.466600
20
-203.578000
11
71.466600
21
-203.578000
0
LINE
8
Pad
10
74.666600
20
-203.578000
11
74.666600
21
-203.578000
0
LINE
8
Pad
10
71.466600
20
-203.578000
11
74.666600
21
-203.578000
0
LINE
8
Pad
10
71.466600
20
-203.578000
11
74.666600
21
-203.578000
0
LINE
8
Pad
10
74.666600
20
-203.578000
11
74.666600
21
-203.578000
0
LINE
8
Pad
10
74.666600
20
-192.911000
11
74.666600
21
-192.911000
0
LINE
8
Pad
10
74.666600
20
-203.578000
11
74.666600
21
-192.911000
0
LINE
8
Pad
10
74.666600
20
-203.578000
11
74.666600
21
-192.911000
0
LINE
8
Pad
10
74.666600
20
-192.911000
11
74.666600
21
-192.911000
0
LINE
8
Pad
10
71.466600
20
-192.911000
11
71.466600
21
-192.911000
0
LINE
8
Pad
10
74.666600
20
-192.911000
11
71.466600
21
-192.911000
0
LINE
8
Pad
10
74.666600
20
-192.911000
11
71.466600
21
-192.911000
0
LINE
8
Pad
10
71.466600
20
-192.911000
11
71.466600
21
-192.911000
0
LINE
8
Pad
10
71.466600
20
-182.244000
11
71.466600
21
-182.244000
0
LINE
8
Pad
10
71.466600
20
-192.911000
11
71.466600
21
-182.244000
0
LINE
8
Pad
10
71.466600
20
-192.911000
11
71.466600
21
-182.244000
0
LINE
8
Pad
10
71.466600
20
-182.244000
11
71.466600
21
-182.244000
0
LINE
8
Pad
10
74.666600
20
-182.244000
11
74.666600
21
-182.244000
0
LINE
8
Pad
10
71.466600
20
-182.244000
11
74.666600
21
-182.244000
0
LINE
8
Pad
10
71.466600
20
-182.244000
11
74.666600
21
-182.244000
0
LINE
8
Pad
10
74.666600
20
-182.244000
11
74.666600
21
-182.244000
0
LINE
8
Pad
10
74.666600
20
-171.578000
11
74.666600
21
-171.578000
0
LINE
8
Pad
10
74.666600
20
-182.244000
11
74.666600
21
-171.578000
0
LINE
8
Pad
10
74.666600
20
-182.244000
11
74.666600
21
-171.578000
0
LINE
8
Pad
10
74.666600
20
-171.578000
11
74.666600
21
-171.578000
0
LINE
8
Pad
10
63.999900
20
-171.578000
11
63.999900
21
-171.578000
0
LINE
8
Pad
10
74.666600
20
-171.578000
11
63.999900
21
-171.578000
0
LINE
8
Pad
10
74.666600
20
-171.578000
11
63.999900
21
-171.578000
0
LINE
8
Pad
10
63.999900
20
-171.578000
11
63.999900
21
-171.578000
0
LINE
8
Pad
10
63.999900
20
-174.778000
11
63.999900
21
-174.778000
0
LINE
8
Pad
10
63.999900
20
-171.578000
11
63.999900
21
-174.778000
0
LINE
8
Pad
10
63.999900
20
-171.578000
11
63.999900
21
-174.778000
0
LINE
8
Pad
10
63.999900
20
-174.778000
11
63.999900
21
-174.778000
0
LINE
8
Pad
10
53.333300
20
-174.778000
11
53.333300
21
-174.778000
0
LINE
8
Pad
10
63.999900
20
-174.778000
11
53.333300
21
-174.778000
0
LINE
8
Pad
10
63.999900
20
-174.778000
11
53.333300
21
-174.778000
0
LINE
8
Pad
10
53.333300
20
-174.778000
11
53.333300
21
-174.778000
0
LINE
8
Pad
10
53.333300
20
-171.578000
11
53.333300
21
-171.578000
0
LINE
8
Pad
10
53.333300
20
-174.778000
11
53.333300
21
-171.578000
0
LINE
8
Pad
10
53.333300
20
-174.778000
11
53.333300
21
-171.578000
0
LINE
8
Pad
10
53.333300
20
-171.578000
11
53.333300
21
-171.578000
0
LINE
8
Pad
10
42.666600
20
-171.578000
11
42.666600
21
-171.578000
0
LINE
8
Pad
10
53.333300
20
-171.578000
11
42.666600
21
-171.578000
0
LINE
8
Pad
10
53.333300
20
-171.578000
11
42.666600
21
-171.578000
0
LINE
8
Pad
10
42.666600
20
-171.578000
11
42.666600
21
-171.578000
0
LINE
8
Pad
10
42.666600
20
-174.778000
11
42.666600
21
-174.778000
0
LINE
8
Pad
10
42.666600
20
-171.578000
11
42.666600
21
-174.778000
0
LINE
8
Pad
10
42.666600
20
-171.578000
11
42.666600
21
-174.778000
0
LINE
8
Pad
10
42.666600
20
-174.778000
11
42.666600
21
-174.778000
0
LINE
8
Pad
10
32.000000
20
-174.778000
11
32.000000
21
-174.778000
0
LINE
8
Pad
10
42.666600
20
-174.778000
11
32.000000
21
-174.778000
0
LINE
8
Pad
10
42.666600
20
-174.778000
11
32.000000
21
-174.778000
0
LINE
8
Pad
10
32.000000
20
-174.778000
11
32.000000
21
-174.778000
0
LINE
8
Pad
10
32.000000
20
-171.578000
11
32.000000
21
-171.578000
0
LINE
8
Pad
10
32.000000
20
-174.778000
11
32.000000
21
-171.578000
0
LINE
8
Pad
10
32.000000
20
-174.778000
11
32.000000
21
-171.578000
0
LINE
8
Pad
10
32.000000
20
-171.578000
11
32.000000
21
-171.578000
0
LINE
8
Pad
10
21.333300
20
-171.578000
11
21.333300
21
-171.578000
0
LINE
8
Pad
10
32.000000
20
-171.578000
11
21.333300
21
-171.578000
0
LINE
8
Pad
10
32.000000
20
-171.578000
11
21.333300
21
-171.578000
0
LINE
8
Pad
10
21.333300
20
-171.578000
11
21.333300
21
-171.578000
0
LINE
8
Pad
10
21.333300
20
-174.778000
11
21.333300
21
-174.778000
0
LINE
8
Pad
10
21.333300
20
-171.578000
11
21.333300
21
-174.778000
0
LINE
8
Pad
10
21.333300
20
-171.578000
11
21.333300
21
-174.778000
0
LINE
8
Pad
10
21.333300
20
-174.778000
11
21.333300
21
-174.778000
0
LINE
8
Pad
10
10.666700
20
-174.778000
11
10.666700
21
-174.778000
0
LINE
8
Pad
10
21.333300
20
-174.778000
11
10.666700
21
-174.778000
0
LINE
8
Pad
10
21.333300
20
-174.778000
11
10.666700
21
-174.778000
0
LINE
8
Pad
10
10.666700
20
-174.778000
11
10.666700
21
-174.778000
0
LINE
8
Pad
10
10.666700
20
-171.578000
11
10.666700
21
-171.578000
0
LINE
8
Pad
10
10.666700
20
-174.778000
11
10.666700
21
-171.578000
0
LINE
8
Pad
10
10.666700
20
-174.778000
11
10.666700
21
-171.578000
0
LINE
8
Pad
10
10.666700
20
-171.578000
11
10.666700
21
-171.578000
0
LINE
8
Pad
10
0.000000
20
-171.578000
11
0.000000
21
-171.578000
0
LINE
8
Pad
10
10.666700
20
-171.578000
11
0.000000
21
-171.578000
0
LINE
8
Pad
10
10.666700
20
-171.578000
11
0.000000
21
-171.578000
0
LINE
8
Pad
10
0.000000
20
-171.578000
11
0.000000
21
-171.578000
0
LINE
8
Pad
10
0.000000
20
-182.244000
11
0.000000
21
-182.244000
0
LINE
8
Pad
10
0.000000
20
-171.578000
11
0.000000
21
-182.244000
0
LINE
8
Pad
10
0.000000
20
-171.578000
11
0.000000
21
-182.244000
0
LINE
8
Pad
10
0.000000
20
-182.244000
11
0.000000
21
-182.244000
0
LINE
8
Pad
10
3.200000
20
-182.244000
11
3.200000
21
-182.244000
0
LINE
8
Pad
10
0.000000
20
-182.244000
11
3.200000
21
-182.244000
0
LINE
8
Pad
10
0.000000
20
-182.244000
11
3.200000
21
-182.244000
0
LINE
8
Pad
10
3.200000
20
-182.244000
11
3.200000
21
-182.244000
0
LINE
8
Pad
10
3.200000
20
-192.911000
11
3.200000
21
-192.911000
0
LINE
8
Pad
10
3.200000
20
-182.244000
11
3.200000
21
-192.911000
0
LINE
8
Pad
10
3.200000
20
-182.244000
11
3.200000
21
-192.911000
0
LINE
8
Pad
10
3.200000
20
-192.911000
11
3.200000
21
-192.911000
0
LINE
8
Pad
10
0.000000
20
-192.911000
11
0.000000
21
-192.911000
0
LINE
8
Pad
10
3.200000
20
-192.911000
11
0.000000
21
-192.911000
0
LINE
8
Pad
10
3.200000
20
-192.911000
11
0.000000
21
-192.911000
0
LINE
8
Pad
10
0.000000
20
-192.911000
11
0.000000
21
-192.911000
0
LINE
8
Pad
10
0.000000
20
-203.578000
11
0.000000
21
-203.578000
0
LINE
8
Pad
10
0.000000
20
-192.911000
11
0.000000
21
-203.578000
0
LINE
8
Pad
10
0.000000
20
-192.911000
11
0.000000
21
-203.578000
0
LINE
8
Pad
10
0.000000
20
-203.578000
11
0.000000
21
-203.578000
0
LINE
8
Pad
10
3.200000
20
-203.578000
11
3.200000
21
-203.578000
0
LINE
8
Pad
10
0.000000
20
-203.578000
11
3.200000
21
-203.578000
0
LINE
8
Pad
10
0.000000
20
-203.578000
11
3.200000
21
-203.578000
0
LINE
8
Pad
10
3.200000
20
-203.578000
11
3.200000
21
-203.578000
0
LINE
8
Pad
10
3.200000
20
-214.244000
11
3.200000
21
-214.244000
0
LINE
8
Pad
10
3.200000
20
-203.578000
11
3.200000
21
-214.244000
0
LINE
8
Pad
10
3.200000
20
-203.578000
11
3.200000
21
-214.244000
0
LINE
8
Pad
10
3.200000
20
-214.244000
11
3.200000
21
-214.244000
0
LINE
8
Pad
10
0.000000
20
-214.244000
11
0.000000
21
-214.244000
0
LINE
8
Pad
10
3.200000
20
-214.244000
11
0.000000
21
-214.244000
0
LINE
8
Pad
10
3.200000
20
-214.244000
11
0.000000
21
-214.244000
0
LINE
8
Pad
10
0.000000
20
-214.244000
11
0.000000
21
-214.244000
0
LINE
8
Pad
10
0.000000
20
-224.911000
11
0.000000
21
-224.911000
0
LINE
8
Pad
10
0.000000
20
-214.244000
11
0.000000
21
-224.911000
0
LINE
8
Pad
10
0.000000
20
-214.244000
11
0.000000
21
-224.911000
0
LINE
8
Pad
10
0.000000
20
-224.911000
11
0.000000
21
-224.911000
0
LINE
8
Pad
10
3.200000
20
-224.911000
11
3.200000
21
-224.911000
0
LINE
8
Pad
10
0.000000
20
-224.911000
11
3.200000
21
-224.911000
0
LINE
8
Pad
10
0.000000
20
-224.911000
11
3.200000
21
-224.911000
0
LINE
8
Pad
10
3.200000
20
-224.911000
11
3.200000
21
-224.911000
0
LINE
8
Pad
10
3.200000
20
-235.577000
11
3.200000
21
-235.577000
0
LINE
8
Pad
10
3.200000
20
-224.911000
11
3.200000
21
-235.577000
0
LINE
8
Pad
10
3.200000
20
-224.911000
11
3.200000
21
-235.577000
0
LINE
8
Pad
10
3.200000
20
-235.577000
11
3.200000
21
-235.577000
0
LINE
8
Pad
10
0.000000
20
-235.577000
11
0.000000
21
-235.577000
0
LINE
8
Pad
10
3.200000
20
-235.577000
11
0.000000
21
-235.577000
0
LINE
8
Pad
10
3.200000
20
-235.577000
11
0.000000
21
-235.577000
0
LINE
8
Pad
10
0.000000
20
-235.577000
11
0.000000
21
-235.577000
0
LINE
8
Pad
10
0.000000
20
-246.244000
11
0.000000
21
-246.244000
0
LINE
8
Pad
10
0.000000
20
-235.577000
11
0.000000
21
-246.244000
0
LINE
8
Pad
10
0.000000
20
-235.577000
11
0.000000
21
-246.244000
0
LINE
8
Pad
10
0.000000
20
-246.244000
11
10.666700
21
-246.244000
0
LINE
8
Pad
10
10.666700
20
-246.244000
11
10.666700
21
-243.044000
0
LINE
8
Pad
10
10.666700
20
-243.044000
11
21.333300
21
-243.044000
0
LINE
8
Pad
10
21.333300
20
-243.044000
11
21.333300
21
-246.244000
0
LINE
8
Pad
10
21.333300
20
-246.244000
11
32.000000
21
-246.244000
0
LINE
8
Pad
10
32.000000
20
-246.244000
11
32.000000
21
-243.044000
0
LINE
8
Pad
10
32.000000
20
-243.044000
11
42.666600
21
-243.044000
0
LINE
8
Pad
10
42.666600
20
-243.044000
11
42.666600
21
-246.244000
0
LINE
8
Pad
10
42.666600
20
-246.244000
11
53.333300
21
-246.244000
0
LINE
8
Pad
10
53.333300
20
-246.244000
11
53.333300
21
-243.044000
0
LINE
8
Pad
10
53.333300
20
-243.044000
11
63.999900
21
-243.044000
0
LINE
8
Pad
10
63.999900
20
-243.044000
11
63.999900
21
-246.244000
0
LINE
8
Pad
10
63.999900
20
-246.244000
11
74.666600
21
-246.244000
0
LINE
8
Pad
10
74.666600
20
-246.244000
11
74.666600
21
-235.577000
0
LINE
8
Pad
10
74.666600
20
-235.577000
11
71.466600
21
-235.577000
0
LINE
8
Pad
10
71.466600
20
-235.577000
11
71.466600
21
-224.911000
0
LINE
8
Pad
10
71.466600
20
-224.911000
11
74.666600
21
-224.911000
0
LINE
8
Pad
10
74.666600
20
-224.911000
11
74.666600
21
-214.244000
0
LINE
8
Pad
10
74.666600
20
-214.244000
11
71.466600
21
-214.244000
0
LINE
8
Pad
10
71.466600
20
-214.244000
11
71.466600
21
-203.578000
0
LINE
8
Pad
10
71.466600
20
-203.578000
11
74.666600
21
-203.578000
0
LINE
8
Pad
10
74.666600
20
-203.578000
11
74.666600
21
-192.911000
0
LINE
8
Pad
10
74.666600
20
-192.911000
11
71.466600
21
-192.911000
0
LINE
8
Pad
10
71.466600
20
-192.911000
11
71.466600
21
-182.244000
0
LINE
8
Pad
10
71.466600
20
-182.244000
11
74.666600
21
-182.244000
0
LINE
8
Pad
10
74.666600
20
-182.244000
11
74.666600
21
-171.578000
0
LINE
8
Pad
10
74.666600
20
-171.578000
11
63.999900
21
-171.578000
0
LINE
8
Pad
10
63.999900
20
-171.578000
11
63.999900
21
-174.778000
0
LINE
8
Pad
10
63.999900
20
-174.778000
11
53.333300
21
-174.778000
0
LINE
8
Pad
10
53.333300
20
-174.778000
11
53.333300
21
-171.578000
0
LINE
8
Pad
10
53.333300
20
-171.578000
11
42.666600
21
-171.578000
0
LINE
8
Pad
10
42.666600
20
-171.578000
11
42.666600
21
-174.778000
0
LINE
8
Pad
10
42.666600
20
-174.778000
11
32.000000
21
-174.778000
0
LINE
8
Pad
10
32.000000
20
-174.778000
11
32.000000
21
-171.578000
0
LINE
8
Pad
10
32.000000
20
-171.578000
11
21.333300
21
-171.578000
0
LINE
8
Pad
10
21.333300
20
-171.578000
11
21.333300
21
-174.778000
0
LINE
8
Pad
10
21.333300
20
-174.778000
11
10.666700
21
-174.778000
0
LINE
8
Pad
10
10.666700
20
-174.778000
11
10.666700
21
-171.578000
0
LINE
8
Pad
10
10.666700
20
-171.578000
11
0.000000
21
-171.578000
0
LINE
8
Pad
10
0.000000
20
-171.578000
11
0.000000
21
-182.244000
0
LINE
8
Pad
10
0.000000
20
-182.244000
11
3.200000
21
-182.244000
0
LINE
8
Pad
10
3.200000
20
-182.244000
11
3.200000
21
-192.911000
0
LINE
8
Pad
10
3.200000
20
-192.911000
11
0.000000
21
-192.911000
0
LINE
8
Pad
10
0.000000
20
-192.911000
11
0.000000
21
-203.578000
0
LINE
8
Pad
10
0.000000
20
-203.578000
11
3.200000
21
-203.578000
0
LINE
8
Pad
10
3.200000
20
-203.578000
11
3.200000
21
-214.244000
0
LINE
8
Pad
10
3.200000
20
-214.244000
11
0.000000
21
-214.244000
0
LINE
8
Pad
10
0.000000
20
-214.244000
11
0.000000
21
-224.911000
0
LINE
8
Pad
10
0.000000
20
-224.911000
11
3.200000
21
-224.911000
0
LINE
8
Pad
10
3.200000
20
-224.911000
11
3.200000
21
-235.577000
0
LINE
8
Pad
10
3.200000
20
-235.577000
11
0.000000
21
-235.577000
0
LINE
8
Pad
10
0.000000
20
-235.577000
11
0.000000
21
-246.244000
0
LINE
8
Pad
10
0.000000
20
-246.244000
11
10.666700
21
-246.244000
0
LINE
8
Pad
10
10.666700
20
-246.244000
11
10.666700
21
-243.044000
0
LINE
8
Pad
10
10.666700
20
-243.044000
11
21.333300
21
-243.044000
0
LINE
8
Pad
10
21.333300
20
-243.044000
11
21.333300
21
-246.244000
0
LINE
8
Pad
10
21.333300
20
-246.244000
11
32.000000
21
-246.244000
0
LINE
8
Pad
10
32.000000
20
-246.244000
11
32.000000
21
-243.044000
0
LINE
8
Pad
10
32.000000
20
-243.044000
11
42.666600
21
-243.044000
0
LINE
8
Pad
10
42.666600
20
-243.044000
11
42.666600
21
-246.244000
0
LINE
8
Pad
10
42.666600
20
-246.244000
11
53.333300
21
-246.244000
0
LINE
8
Pad
10
53.333300
20
-246.244000
11
53.333300
21
-243.044000
0
LINE
8
Pad
10
53.333300
20
-243.044000
11
63.999900
21
-243.044000
0
LINE
8
Pad
10
63.999900
20
-243.044000
11
63.999900
21
-246.244000
0
LINE
8
Pad
10
63.999900
20
-246.244000
11
74.666600
21
-246.244000
0
LINE
8
Pad
10
74.666600
20
-246.244000
11
74.666600
21
-235.577000
0
LINE
8
Pad
10
74.666600
20
-235.577000
11
71.466600
21
-235.577000
0
LINE
8
Pad
10
71.466600
20
-235.577000
11
71.466600
21
-224.911000
0
LINE
8
Pad
10
71.466600
20
-224.911000
11
74.666600
21
-224.911000
0
LINE
8
Pad
10
74.666600
20
-224.911000
11
74.666600
21
-214.244000
0
LINE
8
Pad
10
74.666600
20
-214.244000
11
71.466600
21
-214.244000
0
LINE
8
Pad
10
71.466600
20
-214.244000
11
71.466600
21
-203.578000
0
LINE
8
Pad
10
71.466600
20
-203.578000
11
74.666600
21
-203.578000
0
LINE
8
Pad
10
74.666600
20
-203.578000
11
74.666600
21
-192.911000
0
LINE
8
Pad
10
74.666600
20
-192.911000
11
71.466600
21
-192.911000
0
LINE
8
Pad
10
71.466600
20
-192.911000
11
71.466600
21
-182.244000
0
LINE
8
Pad
10
71.466600
20
-182.244000
11
74.666600
21
-182.244000
0
LINE
8
Pad
10
74.666600
20
-182.244000
11
74.666600
21
-171.578000
0
LINE
8
Pad
10
74.666600
20
-171.578000
11
63.999900
21
-171.578000
0
LINE
8
Pad
10
63.999900
20
-171.578000
11
63.999900
21
-174.778000
0
LINE
8
Pad
10
63.999900
20
-174.778000
11
53.333300
21
-174.778000
0
LINE
8
Pad
10
53.333300
20
-174.778000
11
53.333300
21
-171.578000
0
LINE
8
Pad
10
53.333300
20
-171.578000
11
42.666600
21
-171.578000
0
LINE
8
Pad
10
42.666600
20
-171.578000
11
42.666600
21
-174.778000
0
LINE
8
Pad
10
42.666600
20
-174.778000
11
32.000000
21
-174.778000
0
LINE
8
Pad
10
32.000000
20
-174.778000
11
32.000000
21
-171.578000
0
LINE
8
Pad
10
32.000000
20
-171.578000
11
21.333300
21
-171.578000
0
LINE
8
Pad
10
21.333300
20
-171.578000
11
21.333300
21
-174.778000
0
LINE
8
Pad
10
21.333300
20
-174.778000
11
10.666700
21
-174.778000
0
LINE
8
Pad
10
10.666700
20
-174.778000
11
10.666700
21
-171.578000
0
LINE
8
Pad
10
10.666700
20
-171.578000
11
0.000000
21
-171.578000
0
LINE
8
Pad
10
0.000000
20
-171.578000
11
0.000000
21
-182.244000
0
LINE
8
Pad
10
0.000000
20
-182.244000
11
3.200000
21
-182.244000
0
LINE
8
Pad
10
3.200000
20
-182.244000
11
3.200000
21
-192.911000
0
LINE
8
Pad
10
3.200000
20
-192.911000
11
0.000000
21
-192.911000
0
LINE
8
Pad
10
0.000000
20
-192.911000
11
0.000000
21
-203.578000
0
LINE
8
Pad
10
0.000000
20
-203.578000
11
3.200000
21
-203.578000
0
LINE
8
Pad
10
3.200000
20
-203.578000
11
3.200000
21
-214.244000
0
LINE
8
Pad
10
3.200000
20
-214.244000
11
0.000000
21
-214.244000
0
LINE
8
Pad
10
0.000000
20
-214.244000
11
0.000000
21
-224.911000
0
LINE
8
Pad
10
0.000000
20
-224.911000
11
3.200000
21
-224.911000
0
LINE
8
Pad
10
3.200000
20
-224.911000
11
3.200000
21
-235.577000
0
LINE
8
Pad
10
3.200000
20
-235.577000
11
0.000000
21
-235.577000
0
LINE
8
Pad
10
0.000000
20
-235.577000
11
0.000000
21
-246.244000
0
LINE
8
Pad
10
0.000000
20
-246.244000
11
0.000000
21
-246.244000
0
LINE
8
Pad
10
0.000000
20
-224.911000
11
0.000000
21
-224.911000
0
LINE
8
Pad
10
0.000000
20
-246.244000
11
0.000000
21
-224.911000
0
LINE
8
Pad
10
0.000000
20
-246.244000
11
0.000000
21
-224.911000
0
LINE
8
Pad
10
0.000000
20
-224.911000
11
0.000000
21
-224.911000
0
LINE
8
Pad
10
68.266600
20
-224.911000
11
68.266600
21
-224.911000
0
LINE
8
Pad
10
0.000000
20
-224.911000
11
68.266600
21
-224.911000
0
LINE
8
Pad
10
0.000000
20
-224.911000
11
68.266600
21
-224.911000
0
LINE
8
Pad
10
68.266600
20
-224.911000
11
68.266600
21
-224.911000
0
LINE
8
Pad
10
68.266600
20
-246.244000
11
68.266600
21
-246.244000
0
LINE
8
Pad
10
68.266600
20
-224.911000
11
68.266600
21
-246.244000
0
LINE
8
Pad
10
68.266600
20
-224.911000
11
68.266600
21
-246.244000
0
LINE
8
Pad
10
68.266600
20
-249.444000
11
68.266600
21
-249.444000
0
LINE
8
Pad
10
68.266600
20
-246.244000
11
68.266600
21
-246.244000
0
LINE
8
Pad
10
68.266600
20
-249.444000
11
68.266600
21
-246.244000
0
LINE
8
Pad
10
68.266600
20
-249.444000
11
68.266600
21
-246.244000
0
LINE
8
Pad
10
50.133300
20
-249.444000
11
50.133300
21
-249.444000
0
LINE
8
Pad
10
68.266600
20
-249.444000
11
68.266600
21
-249.444000
0
LINE
8
Pad
10
50.133300
20
-249.444000
11
68.266600
21
-249.444000
0
LINE
8
Pad
10
50.133300
20
-249.444000
11
68.266600
21
-249.444000
0
LINE
8
Pad
10
50.133300
20
-246.244000
11
50.133300
21
-246.244000
0
LINE
8
Pad
10
50.133300
20
-249.444000
11
50.133300
21
-249.444000
0
LINE
8
Pad
10
50.133300
20
-246.244000
11
50.133300
21
-249.444000
0
LINE
8
Pad
10
50.133300
20
-246.244000
11
50.133300
21
-249.444000
0
LINE
8
Pad
10
18.133300
20
-246.244000
11
18.133300
21
-246.244000
0
LINE
8
Pad
10
50.133300
20
-246.244000
11
50.133300
21
-246.244000
0
LINE
8
Pad
10
18.133300
20
-246.244000
11
50.133300
21
-246.244000
0
LINE
8
Pad
10
18.133300
20
-246.244000
11
50.133300
21
-246.244000
0
LINE
8
Pad
10
18.133300
20
-249.444000
11
18.133300
21
-249.444000
0
LINE
8
Pad
10
18.133300
20
-246.244000
11
18.133300
21
-246.244000
0
LINE
8
Pad
10
18.133300
20
-249.444000
11
18.133300
21
-246.244000
0
LINE
8
Pad
10
18.133300
20
-249.444000
11
18.133300
21
-246.244000
0
LINE
8
Pad
10
0.000000
20
-249.444000
11
0.000000
21
-249.444000
0
LINE
8
Pad
10
18.133300
20
-249.444000
11
18.133300
21
-249.444000
0
LINE
8
Pad
10
0.000000
20
-249.444000
11
18.133300
21
-249.444000
0
LINE
8
Pad
10
0.000000
20
-249.444000
11
18.133300
21
-249.444000
0
LINE
8
Pad
10
0.000000
20
-246.244000
11
0.000000
21
-246.244000
0
LINE
8
Pad
10
0.000000
20
-249.444000
11
0.000000
21
-249.444000
0
LINE
8
Pad
10
0.000000
20
-246.244000
11
0.000000
21
-249.444000
0
LINE
8
Pad
10
0.000000
20
-246.244000
11
0.000000
21
-249.444000
0
LINE
8
Pad
10
0.000000
20
-246.244000
11
0.000000
21
-224.911000
0
LINE
8
Pad
10
0.000000
20
-224.911000
11
68.266600
21
-224.911000
0
LINE
8
Pad
10
68.266600
20
-224.911000
11
68.266600
21
-246.244000
0
LINE
8
Pad
10
68.266600
20
-249.444000
11
68.266600
21
-246.244000
0
LINE
8
Pad
10
50.133300
20
-249.444000
11
68.266600
21
-249.444000
0
LINE
8
Pad
10
50.133300
20
-246.244000
11
50.133300
21
-249.444000
0
LINE
8
Pad
10
18.133300
20
-246.244000
11
50.133300
21
-246.244000
0
LINE
8
Pad
10
18.133300
20
-249.444000
11
18.133300
21
-246.244000
0
LINE
8
Pad
10
0.000000
20
-249.444000
11
18.133300
21
-249.444000
0
LINE
8
Pad
10
0.000000
20
-246.244000
11
0.000000
21
-249.444000
0
LINE
8
Pad
10
0.000000
20
-246.244000
11
0.000000
21
-224.911000
0
LINE
8
Pad
10
0.000000
20
-224.911000
11
68.266600
21
-224.911000
0
LINE
8
Pad
10
68.266600
20
-224.911000
11
68.266600
21
-246.244000
0
LINE
8
Pad
10
68.266600
20
-249.444000
11
68.266600
21
-246.244000
0
LINE
8
Pad
10
50.133300
20
-249.444000
11
68.266600
21
-249.444000
0
LINE
8
Pad
10
50.133300
20
-246.244000
11
50.133300
21
-249.444000
0
LINE
8
Pad
10
18.133300
20
-246.244000
11
50.133300
21
-246.244000
0
LINE
8
Pad
10
18.133300
20
-249.444000
11
18.133300
21
-246.244000
0
LINE
8
Pad
10
0.000000
20
-249.444000
11
18.133300
21
-249.444000
0
LINE
8
Pad
10
0.000000
20
-246.244000
11
0.000000
21
-249.444000
0
LINE
8
Shape2DView
10
13.866700
20
-243.044000
11
13.866700
21
-246.244000
0
LINE
8
Shape2DView
10
3.200000
20
-243.044000
11
13.866700
21
-243.044000
0
LINE
8
Shape2DView
10
3.200000
20
-243.044000
11
3.200000
21
-235.577000
0
LINE
8
Shape2DView
10
3.200000
20
-235.577000
11
0.000000
21
-235.577000
0
LINE
8
Shape2DView
10
0.000000
20
-235.577000
11
0.000000
21
-224.911000
0
LINE
8
Shape2DView
10
0.000000
20
-224.911000
11
3.200000
21
-224.911000
0
LINE
8
Shape2DView
10
3.200000
20
-224.911000
11
3.200000
21
-214.244000
0
LINE
8
Shape2DView
10
3.200000
20
-214.244000
11
-5.333330
21
-214.244000
0
LINE
8
Shape2DView
10
-5.333330
20
-214.244000
11
-5.333330
21
-203.578000
0
LINE
8
Shape2DView
10
-5.333330
20
-203.578000
11
3.200000
21
-203.578000
0
LINE
8
Shape2DView
10
3.200000
20
-203.578000
11
3.200000
21
-192.911000
0
LINE
8
Shape2DView
10
3.200000
20
-192.911000
11
0.000000
21
-192.911000
0
LINE
8
Shape2DView
10
0.000000
20
-192.911000
11
0.000000
21
-182.244000
0
LINE
8
Shape2DView
10
0.000000
20
-182.244000
11
3.200000
21
-182.244000
0
LINE
8
Shape2DView
10
3.200000
20
-182.244000
11
3.200000
21
-174.778000
0
LINE
8
Shape2DView
10
13.866700
20
-174.778000
11
3.200000
21
-174.778000
0
LINE
8
Shape2DView
10
13.866700
20
-171.578000
11
13.866700
21
-174.778000
0
LINE
8
Shape2DView
10
13.866700
20
-171.578000
11
21.333300
21
-171.578000
0
LINE
8
Shape2DView
10
21.333300
20
-174.778000
11
21.333300
21
-171.578000
0
LINE
8
Shape2DView
10
18.133300
20
-174.778000
11
21.333300
21
-174.778000
0
LINE
8
Shape2DView
10
18.133300
20
-192.911000
11
18.133300
21
-174.778000
0
LINE
8
Shape2DView
10
21.333300
20
-192.911000
11
18.133300
21
-192.911000
0
LINE
8
Shape2DView
10
21.333300
20
-203.578000
11
21.333300
21
-192.911000
0
LINE
8
Shape2DView
10
16.000000
20
-203.578000
11
21.333300
21
-203.578000
0
LINE
8
Shape2DView
10
16.000000
20
-214.244000
11
16.000000
21
-203.578000
0
LINE
8
Shape2DView
10
21.333300
20
-214.244000
11
16.000000
21
-214.244000
0
LINE
8
Shape2DView
10
21.333300
20
-224.911000
11
21.333300
21
-214.244000
0
LINE
8
Shape2DView
10
18.133300
20
-224.911000
11
21.333300
21
-224.911000
0
LINE
8
Shape2DView
10
18.133300
20
-243.044000
11
18.133300
21
-224.911000
0
LINE
8
Shape2DView
10
21.333300
20
-243.044000
11
18.133300
21
-243.044000
0
LINE
8
Shape2DView
10
21.333300
20
-246.244000
11
21.333300
21
-243.044000
0
LINE
8
Shape2DView
10
13.866700
20
-246.244000
11
21.333300
21
-246.244000
0
LINE
8
Shape2DView
10
3.200000
20
-235.577000
11
0.000000
21
-235.577000
0
LINE
8
Shape2DView
10
0.000000
20
-235.577000
11
0.000000
21
-224.911000
0
LINE
8
Shape2DView
10
0.000000
20
-224.911000
11
3.200000
21
-224.911000
0
LINE
8
Shape2DView
10
3.200000
20
-224.911000
11
3.200000
21
-214.244000
0
LINE
8
Shape2DView
10
3.200000
20
-214.244000
11
0.000000
21
-214.244000
0
LINE
8
Shape2DView
10
0.000000
20
-214.244000
11
0.000000
21
-203.578000
0
LINE
8
Shape2DView
10
0.000000
20
-203.578000
11
3.200000
21
-203.578000
0
LINE
8
Shape2DView
10
3.200000
20
-203.578000
11
3.200000
21
-192.911000
0
LINE
8
Shape2DView
10
3.200000
20
-192.911000
11
0.000000
21
-192.911000
0
LINE
8
Shape2DView
10
0.000000
20
-192.911000
11
0.000000
21
-182.244000
0
LINE
8
Shape2DView
10
0.000000
20
-182.244000
11
3.200000
21
-182.244000
0
LINE
8
Shape2DView
10
3.200000
20
-182.244000
11
3.200000
21
-174.778000
0
LINE
8
Shape2DView
10
3.200000
20
-174.778000
11
13.866700
21
-174.778000
0
LINE
8
Shape2DView
10
13.866700
20
-174.778000
11
13.866700
21
-171.578000
0
LINE
8
Shape2DView
10
13.866700
20
-171.578000
11
21.333300
21
-171.578000
0
LINE
8
Shape2DView
10
21.333300
20
-171.578000
11
21.333300
21
-246.244000
0
LINE
8
Shape2DView
10
21.333300
20
-246.244000
11
13.866700
21
-246.244000
0
LINE
8
Shape2DView
10
13.866700
20
-246.244000
11
13.866700
21
-243.044000
0
LINE
8
Shape2DView
10
13.866700
20
-243.044000
11
3.200000
21
-243.044000
0
LINE
8
Shape2DView
10
3.200000
20
-243.044000
11
3.200000
21
-235.577000
0
LINE
8
Shape2DView
10
21.333300
20
-249.444000
11
13.866700
21
-249.444000
0
LINE
8
Shape2DView
10
13.866700
20
-249.444000
11
13.866700
21
-246.244000
0
LINE
8
Shape2DView
10
13.866700
20
-246.244000
11
3.200000
21
-246.244000
0
LINE
8
Shape2DView
10
3.200000
20
-246.244000
11
3.200000
21
-256.911000
0
LINE
8
Shape2DView
10
3.200000
20
-256.911000
11
-3.200000
21
-256.911000
0
LINE
8
Shape2DView
10
-3.200000
20
-256.911000
11
-3.200000
21
-267.577000
0
LINE
8
Shape2DView
10
-3.200000
20
-267.577000
11
3.200000
21
-267.577000
0
LINE
8
Shape2DView
10
3.200000
20
-267.577000
11
3.200000
21
-278.244000
0
LINE
8
Shape2DView
10
3.200000
20
-278.244000
11
0.000000
21
-278.244000
0
LINE
8
Shape2DView
10
0.000000
20
-278.244000
11
0.000000
21
-288.911000
0
LINE
8
Shape2DView
10
0.000000
20
-288.911000
11
3.200000
21
-288.911000
0
LINE
8
Shape2DView
10
3.200000
20
-288.911000
11
3.200000
21
-299.577000
0
LINE
8
Shape2DView
10
3.200000
20
-299.577000
11
-3.200000
21
-299.577000
0
LINE
8
Shape2DView
10
-3.200000
20
-299.577000
11
-3.200000
21
-310.244000
0
LINE
8
Shape2DView
10
-3.200000
20
-310.244000
11
3.200000
21
-310.244000
0
LINE
8
Shape2DView
10
3.200000
20
-310.244000
11
3.200000
21
-320.911000
0
LINE
8
Shape2DView
10
3.200000
20
-320.911000
11
13.866700
21
-320.911000
0
LINE
8
Shape2DView
10
13.866700
20
-320.911000
11
13.866700
21
-317.711000
0
LINE
8
Shape2DView
10
13.866700
20
-317.711000
11
21.333300
21
-317.711000
0
LINE
8
Shape2DView
10
21.333300
20
-310.244000
11
21.333300
21
-317.711000
0
LINE
8
Shape2DView
10
18.133300
20
-310.244000
11
21.333300
21
-310.244000
0
LINE
8
Shape2DView
10
18.133300
20
-299.577000
11
18.133300
21
-310.244000
0
LINE
8
Shape2DView
10
21.333300
20
-299.577000
11
18.133300
21
-299.577000
0
LINE
8
Shape2DView
10
21.333300
20
-267.577000
11
21.333300
21
-299.577000
0
LINE
8
Shape2DView
10
18.133300
20
-267.577000
11
21.333300
21
-267.577000
0
LINE
8
Shape2DView
10
18.133300
20
-256.911000
11
18.133300
21
-267.577000
0
LINE
8
Shape2DView
10
21.333300
20
-256.911000
11
18.133300
21
-256.911000
0
LINE
8
Shape2DView
10
21.333300
20
-249.444000
11
21.333300
21
-256.911000
0
LINE
8
Pad
10
0.000000
20
-246.244000
11
0.000000
21
-246.244000
0
LINE
8
Pad
10
10.666700
20
-246.244000
11
10.666700
21
-246.244000
0
LINE
8
Pad
10
0.000000
20
-246.244000
11
10.666700
21
-246.244000
0
LINE
8
Pad
10
0.000000
20
-246.244000
11
10.666700
21
-246.244000
0
LINE
8
Pad
10
10.666700
20
-246.244000
11
10.666700
21
-246.244000
0
LINE
8
Pad
10
10.666700
20
-243.044000
11
10.666700
21
-243.044000
0
LINE
8
Pad
10
10.666700
20
-246.244000
11
10.666700
21
-243.044000
0
LINE
8
Pad
10
10.666700
20
-246.244000
11
10.666700
21
-243.044000
0
LINE
8
Pad
10
10.666700
20
-243.044000
11
10.666700
21
-243.044000
0
LINE
8
Pad
10
21.333300
20
-243.044000
11
21.333300
21
-243.044000
0
LINE
8
Pad
10
10.666700
20
-243.044000
11
21.333300
21
-243.044000
0
LINE
8
Pad
10
10.666700
20
-243.044000
11
21.333300
21
-243.044000
0
LINE
8
Pad
10
21.333300
20
-243.044000
11
21.333300
21
-243.044000
0
LINE
8
Pad
10
21.333300
20
-246.244000
11
21.333300
21
-246.244000
0
LINE
8
Pad
10
21.333300
20
-243.044000
11
21.333300
21
-246.244000
0
LINE
8
Pad
10
21.333300
20
-243.044000
11
21.333300
21
-246.244000
0
LINE
8
Pad
10
21.333300
20
-246.244000
11
21.333300
21
-246.244000
0
LINE
8
Pad
10
32.000000
20
-246.244000
11
32.000000
21
-246.244000
0
LINE
8
Pad
10
21.333300
20
-246.244000
11
32.000000
21
-246.244000
0
LINE
8
Pad
10
21.333300
20
-246.244000
11
32.000000
21
-246.244000
0
LINE
8
Pad
10
32.000000
20
-246.244000
11
32.000000
21
-246.244000
0
LINE
8
Pad
10
32.000000
20
-243.044000
11
32.000000
21
-243.044000
0
LINE
8
Pad
10
32.000000
20
-246.244000
11
32.000000
21
-243.044000
0
LINE
8
Pad
10
32.000000
20
-246.244000
11
32.000000
21
-243.044000
0
LINE
8
Pad
10
32.000000
20
-243.044000
11
32.000000
21
-243.044000
0
LINE
8
Pad
10
42.666600
20
-243.044000
11
42.666600
21
-243.044000
0
LINE
8
Pad
10
32.000000
20
-243.044000
11
42.666600
21
-243.044000
0
LINE
8
Pad
10
32.000000
20
-243.044000
11
42.666600
21
-243.044000
0
LINE
8
Pad
10
42.666600
20
-243.044000
11
42.666600
21
-243.044000
0
LINE
8
Pad
10
42.666600
20
-246.244000
11
42.666600
21
-246.244000
0
LINE
8
Pad
10
42.666600
20
-243.044000
11
42.666600
21
-246.244000
0
LINE
8
Pad
10
42.666600
20
-243.044000
11
42.666600
21
-246.244000
0
LINE
8
Pad
10
42.666600
20
-246.244000
11
42.666600
21
-246.244000
0
LINE
8
Pad
10
53.333300
20
-246.244000
11
53.333300
21
-246.244000
0
LINE
8
Pad
10
42.666600
20
-246.244000
11
53.333300
21
-246.244000
0
LINE
8
Pad
10
42.666600
20
-246.244000
11
53.333300
21
-246.244000
0
LINE
8
Pad
10
53.333300
20
-246.244000
11
53.333300
21
-246.244000
0
LINE
8
Pad
10
53.333300
20
-243.044000
11
53.333300
21
-243.044000
0
LINE
8
Pad
10
53.333300
20
-246.244000
11
53.333300
21
-243.044000
0
LINE
8
Pad
10
53.333300
20
-246.244000
11
53.333300
21
-243.044000
0
LINE
8
Pad
10
53.333300
20
-243.044000
11
53.333300
21
-243.044000
0
LINE
8
Pad
10
63.999900
20
-243.044000
11
63.999900
21
-243.044000
0
LINE
8
Pad
10
53.333300
20
-243.044000
11
63.999900
21
-243.044000
0
LINE
8
Pad
10
53.333300
20
-243.044000
11
63.999900
21
-243.044000
0
LINE
8
Pad
10
63.999900
20
-243.044000
11
63.999900
21
-243.044000
0
LINE
8
Pad
10
63.999900
20
-246.244000
11
63.999900
21
-246.244000
0
LINE
8
Pad
10
63.999900
20
-243.044000
11
63.999900
21
-246.244000
0
LINE
8
Pad
10
63.999900
20
-243.044000
11
63.999900
21
-246.244000
0
LINE
8
Pad
10
63.999900
20
-246.244000
11
63.999900
21
-246.244000
0
LINE
8
Pad
10
74.666600
20
-246.244000
11
74.666600
21
-246.244000
0
LINE
8
Pad
10
63.999900
20
-246.244000
11
74.666600
21
-246.244000
0
LINE
8
Pad
10
63.999900
20
-246.244000
11
74.666600
21
-246.244000
0
LINE
8
Pad
10
74.666600
20
-246.244000
11
74.666600
21
-246.244000
0
LINE
8
Pad
10
74.666600
20
-235.577000
11
74.666600
21
-235.577000
0
LINE
8
Pad
10
74.666600
20
-246.244000
11
74.666600
21
-235.577000
0
LINE
8
Pad
10
74.666600
20
-246.244000
11
74.666600
21
-235.577000
0
LINE
8
Pad
10
74.666600
20
-235.577000
11
74.666600
21
-235.577000
0
LINE
8
Pad
10
71.466600
20
-235.577000
11
71.466600
21
-235.577000
0
LINE
8
Pad
10
74.666600
20
-235.577000
11
71.466600
21
-235.577000
0
LINE
8
Pad
10
74.666600
20
-235.577000
11
71.466600
21
-235.577000
0
LINE
8
Pad
10
71.466600
20
-235.577000
11
71.466600
21
-235.577000
0
LINE
8
Pad
10
71.466600
20
-224.911000
11
71.466600
21
-224.911000
0
LINE
8
Pad
10
71.466600
20
-235.577000
11
71.466600
21
-224.911000
0
LINE
8
Pad
10
71.466600
20
-235.577000
11
71.466600
21
-224.911000
0
LINE
8
Pad
10
71.466600
20
-224.911000
11
71.466600
21
-224.911000
0
LINE
8
Pad
10
74.666600
20
-224.911000
11
74.666600
21
-224.911000
0
LINE
8
Pad
10
71.466600
20
-224.911000
11
74.666600
21
-224.911000
0
LINE
8
Pad
10
71.466600
20
-224.911000
11
74.666600
21
-224.911000
0
LINE
8
Pad
10
74.666600
20
-224.911000
11
74.666600
21
-224.911000
0
LINE
8
Pad
10
74.666600
20
-214.244000
11
74.666600
21
-214.244000
0
LINE
8
Pad
10
74.666600
20
-224.911000
11
74.666600
21
-214.244000
0
LINE
8
Pad
10
74.666600
20
-224.911000
11
74.666600
21
-214.244000
0
LINE
8
Pad
10
74.666600
20
-214.244000
11
74.666600
21
-214.244000
0
LINE
8
Pad
10
71.466600
20
-214.244000
11
71.466600
21
-214.244000
0
LINE
8
Pad
10
74.666600
20
-214.244000
11
71.466600
21
-214.244000
0
LINE
8
Pad
10
74.666600
20
-214.244000
11
71.466600
21
-214.244000
0
LINE
8
Pad
10
71.466600
20
-214.244000
11
71.466600
21
-214.244000
0
LINE
8
Pad
10
71.466600
20
-203.578000
11
71.466600
21
-203.578000
0
LINE
8
Pad
10
71.466600
20
-214.244000
11
71.466600
21
-203.578000
0
LINE
8
Pad
10
71.466600
20
-214.244000
11
71.466600
21
-203.578000
0
LINE
8
Pad
10
71.466600
20
-203.578000
11
71.466600
21
-203.578000
0
LINE
8
Pad
10
74.666600
20
-203.578000
11
74.666600
21
-203.578000
0
LINE
8
Pad
10
71.466600
20
-203.578000
11
74.666600
21
-203.578000
0
LINE
8
Pad
10
71.466600
20
-203.578000
11
74.666600
21
-203.578000
0
LINE
8
Pad
10
74.666600
20
-203.578000
11
74.666600
21
-203.578000
0
LINE
8
Pad
10
74.666600
20
-192.911000
11
74.666600
21
-192.911000
0
LINE
8
Pad
10
74.666600
20
-203.578000
11
74.666600
21
-192.911000
0
LINE
8
Pad
10
74.666600
20
-203.578000
11
74.666600
21
-192.911000
0
LINE
8
Pad
10
74.666600
20
-192.911000
11
74.666600
21
-192.911000
0
LINE
8
Pad
10
71.466600
20
-192.911000
11
71.466600
21
-192.911000
0
LINE
8
Pad
10
74.666600
20
-192.911000
11
71.466600
21
-192.911000
0
LINE
8
Pad
10
74.666600
20
-192.911000
11
71.466600
21
-192.911000
0
LINE
8
Pad
10
71.466600
20
-192.911000
11
71.466600
21
-192.911000
0
LINE
8
Pad
10
71.466600
20
-182.244000
11
71.466600
21
-182.244000
0
LINE
8
Pad
10
71.466600
20
-192.911000
11
71.466600
21
-182.244000
0
LINE
8
Pad
10
71.466600
20
-192.911000
11
71.466600
21
-182.244000
0
LINE
8
Pad
10
71.466600
20
-182.244000
11
71.466600
21
-182.244000
0
LINE
8
Pad
10
74.666600
20
-182.244000
11
74.666600
21
-182.244000
0
LINE
8
Pad
10
71.466600
20
-182.244000
11
74.666600
21
-182.244000
0
LINE
8
Pad
10
71.466600
20
-182.244000
11
74.666600
21
-182.244000
0
LINE
8
Pad
10
74.666600
20
-182.244000
11
74.666600
21
-182.244000
0
LINE
8
Pad
10
74.666600
20
-171.578000
11
74.666600
21
-171.578000
0
LINE
8
Pad
10
74.666600
20
-182.244000
11
74.666600
21
-171.578000
0
LINE
8
Pad
10
74.666600
20
-182.244000
11
74.666600
21
-171.578000
0
LINE
8
Pad
10
74.666600
20
-171.578000
11
74.666600
21
-171.578000
0
LINE
8
Pad
10
63.999900
20
-171.578000
11
63.999900
21
-171.578000
0
LINE
8
Pad
10
74.666600
20
-171.578000
11
63.999900
21
-171.578000
0
LINE
8
Pad
10
74.666600
20
-171.578000
11
63.999900
21
-171.578000
0
LINE
8
Pad
10
63.999900
20
-171.578000
11
63.999900
21
-171.578000
0
LINE
8
Pad
10
63.999900
20
-174.778000
11
63.999900
21
-174.778000
0
LINE
8
Pad
10
63.999900
20
-171.578000
11
63.999900
21
-174.778000
0
LINE
8
Pad
10
63.999900
20
-171.578000
11
63.999900
21
-174.778000
0
LINE
8
Pad
10
63.999900
20
-174.778000
11
63.999900
21
-174.778000
0
LINE
8
Pad
10
53.333300
20
-174.778000
11
53.333300
21
-174.778000
0
LINE
8
Pad
10
63.999900
20
-174.778000
11
53.333300
21
-174.778000
0
LINE
8
Pad
10
63.999900
20
-174.778000
11
53.333300
21
-174.778000
0
LINE
8
Pad
10
53.333300
20
-174.778000
11
53.333300
21
-174.778000
0
LINE
8
Pad
10
53.333300
20
-171.578000
11
53.333300
21
-171.578000
0
LINE
8
Pad
10
53.333300
20
-174.778000
11
53.333300
21
-171.578000
0
LINE
8
Pad
10
53.333300
20
-174.778000
11
53.333300
21
-171.578000
0
LINE
8
Pad
10
53.333300
20
-171.578000
11
53.333300
21
-171.578000
0
LINE
8
Pad
10
42.666600
20
-171.578000
11
42.666600
21
-171.578000
0
LINE
8
Pad
10
53.333300
20
-171.578000
11
42.666600
21
-171.578000
0
LINE
8
Pad
10
53.333300
20
-171.578000
11
42.666600
21
-171.578000
0
LINE
8
Pad
10
42.666600
20
-171.578000
11
42.666600
21
-171.578000
0
LINE
8
Pad
10
42.666600
20
-174.778000
11
42.666600
21
-174.778000
0
LINE
8
Pad
10
42.666600
20
-171.578000
11
42.666600
21
-174.778000
0
LINE
8
Pad
10
42.666600
20
-171.578000
11
42.666600
21
-174.778000
0
LINE
8
Pad
10
42.666600
20
-174.778000
11
42.666600
21
-174.778000
0
LINE
8
Pad
10
32.000000
20
-174.778000
11
32.000000
21
-174.778000
0
LINE
8
Pad
10
42.666600
20
-174.778000
11
32.000000
21
-174.778000
0
LINE
8
Pad
10
42.666600
20
-174.778000
11
32.000000
21
-174.778000
0
LINE
8
Pad
10
32.000000
20
-174.778000
11
32.000000
21
-174.778000
0
LINE
8
Pad
10
32.000000
20
-171.578000
11
32.000000
21
-171.578000
0
LINE
8
Pad
10
32.000000
20
-174.778000
11
32.000000
21
-171.578000
0
LINE
8
Pad
10
32.000000
20
-174.778000
11
32.000000
21
-171.578000
0
LINE
8
Pad
10
32.000000
20
-171.578000
11
32.000000
21
-171.578000
0
LINE
8
Pad
10
21.333300
20
-171.578000
11
21.333300
21
-171.578000
0
LINE
8
Pad
10
32.000000
20
-171.578000
11
21.333300
21
-171.578000
0
LINE
8
Pad
10
32.000000
20
-171.578000
11
21.333300
21
-171.578000
0
LINE
8
Pad
10
21.333300
20
-171.578000
11
21.333300
21
-171.578000
0
LINE
8
Pad
10
21.333300
20
-174.778000
11
21.333300
21
-174.778000
0
LINE
8
Pad
10
21.333300
20
-171.578000
11
21.333300
21
-174.778000
0
LINE
8
Pad
10
21.333300
20
-171.578000
11
21.333300
21
-174.778000
0
LINE
8
Pad
10
21.333300
20
-174.778000
11
21.333300
21
-174.778000
0
LINE
8
Pad
10
10.666700
20
-174.778000
11
10.666700
21
-174.778000
0
LINE
8
Pad
10
21.333300
20
-174.778000
11
10.666700
21
-174.778000
0
LINE
8
Pad
10
21.333300
20
-174.778000
11
10.666700
21
-174.778000
0
LINE
8
Pad
10
10.666700
20
-174.778000
11
10.666700
21
-174.778000
0
LINE
8
Pad
10
10.666700
20
-171.578000
11
10.666700
21
-171.578000
0
LINE
8
Pad
10
10.666700
20
-174.778000
11
10.666700
21
-171.578000
0
LINE
8
Pad
10
10.666700
20
-174.778000
11
10.666700
21
-171.578000
0
LINE
8
Pad
10
10.666700
20
-171.578000
11
10.666700
21
-171.578000
0
LINE
8
Pad
10
0.000000
20
-171.578000
11
0.000000
21
-171.578000
0
LINE
8
Pad
10
10.666700
20
-171.578000
11
0.000000
21
-171.578000
0
LINE
8
Pad
10
10.666700
20
-171.578000
11
0.000000
21
-171.578000
0
LINE
8
Pad
10
0.000000
20
-171.578000
11
0.000000
21
-171.578000
0
LINE
8
Pad
10
0.000000
20
-182.244000
11
0.000000
21
-182.244000
0
LINE
8
Pad
10
0.000000
20
-171.578000
11
0.000000
21
-182.244000
0
LINE
8
Pad
10
0.000000
20
-171.578000
11
0.000000
21
-182.244000
0
LINE
8
Pad
10
0.000000
20
-182.244000
11
0.000000
21
-182.244000
0
LINE
8
Pad
10
3.200000
20
-182.244000
11
3.200000
21
-182.244000
0
LINE
8
Pad
10
0.000000
20
-182.244000
11
3.200000
21
-182.244000
0
LINE
8
Pad
10
0.000000
20
-182.244000
11
3.200000
21
-182.244000
0
LINE
8
Pad
10
3.200000
20
-182.244000
11
3.200000
21
-182.244000
0
LINE
8
Pad
10
3.200000
20
-192.911000
11
3.200000
21
-192.911000
0
LINE
8
Pad
10
3.200000
20
-182.244000
11
3.200000
21
-192.911000
0
LINE
8
Pad
10
3.200000
20
-182.244000
11
3.200000
21
-192.911000
0
LINE
8
Pad
10
3.200000
20
-192.911000
11
3.200000
21
-192.911000
0
LINE
8
Pad
10
0.000000
20
-192.911000
11
0.000000
21
-192.911000
0
LINE
8
Pad
10
3.200000
20
-192.911000
11
0.000000
21
-192.911000
0
LINE
8
Pad
10
3.200000
20
-192.911000
11
0.000000
21
-192.911000
0
LINE
8
Pad
10
0.000000
20
-192.911000
11
0.000000
21
-192.911000
0
LINE
8
Pad
10
0.000000
20
-203.578000
11
0.000000
21
-203.578000
0
LINE
8
Pad
10
0.000000
20
-192.911000
11
0.000000
21
-203.578000
0
LINE
8
Pad
10
0.000000
20
-192.911000
11
0.000000
21
-203.578000
0
LINE
8
Pad
10
0.000000
20
-203.578000
11
0.000000
21
-203.578000
0
LINE
8
Pad
10
3.200000
20
-203.578000
11
3.200000
21
-203.578000
0
LINE
8
Pad
10
0.000000
20
-203.578000
11
3.200000
21
-203.578000
0
LINE
8
Pad
10
0.000000
20
-203.578000
11
3.200000
21
-203.578000
0
LINE
8
Pad
10
3.200000
20
-203.578000
11
3.200000
21
-203.578000
0
LINE
8
Pad
10
3.200000
20
-214.244000
11
3.200000
21
-214.244000
0
LINE
8
Pad
10
3.200000
20
-203.578000
11
3.200000
21
-214.244000
0
LINE
8
Pad
10
3.200000
20
-203.578000
11
3.200000
21
-214.244000
0
LINE
8
Pad
10
3.200000
20
-214.244000
11
3.200000
21
-214.244000
0
LINE
8
Pad
10
0.000000
20
-214.244000
11
0.000000
21
-214.244000
0
LINE
8
Pad
10
3.200000
20
-214.244000
11
0.000000
21
-214.244000
0
LINE
8
Pad
10
3.200000
20
-214.244000
11
0.000000
21
-214.244000
0
LINE
8
Pad
10
0.000000
20
-214.244000
11
0.000000
21
-214.244000
0
LINE
8
Pad
10
0.000000
20
-224.911000
11
0.000000
21
-224.911000
0
LINE
8
Pad
10
0.000000
20
-214.244000
11
0.000000
21
-224.911000
0
LINE
8
Pad
10
0.000000
20
-214.244000
11
0.000000
21
-224.911000
0
LINE
8
Pad
10
0.000000
20
-224.911000
11
0.000000
21
-224.911000
0
LINE
8
Pad
10
3.200000
20
-224.911000
11
3.200000
21
-224.911000
0
LINE
8
Pad
10
0.000000
20
-224.911000
11
3.200000
21
-224.911000
0
LINE
8
Pad
10
0.000000
20
-224.911000
11
3.200000
21
-224.911000
0
LINE
8
Pad
10
3.200000
20
-224.911000
11
3.200000
21
-224.911000
0
LINE
8
Pad
10
3.200000
20
-235.577000
11
3.200000
21
-235.577000
0
LINE
8
Pad
10
3.200000
20
-224.911000
11
3.200000
21
-235.577000
0
LINE
8
Pad
10
3.200000
20
-224.911000
11
3.200000
21
-235.577000
0
LINE
8
Pad
10
3.200000
20
-235.577000
11
3.200000
21
-235.577000
0
LINE
8
Pad
10
0.000000
20
-235.577000
11
0.000000
21
-235.577000
0
LINE
8
Pad
10
3.200000
20
-235.577000
11
0.000000
21
-235.577000
0
LINE
8
Pad
10
3.200000
20
-235.577000
11
0.000000
21
-235.577000
0
LINE
8
Pad
10
0.000000
20
-235.577000
11
0.000000
21
-235.577000
0
LINE
8
Pad
10
0.000000
20
-246.244000
11
0.000000
21
-246.244000
0
LINE
8
Pad
10
0.000000
20
-235.577000
11
0.000000
21
-246.244000
0
LINE
8
Pad
10
0.000000
20
-235.577000
11
0.000000
21
-246.244000
0
LINE
8
Pad
10
0.000000
20
-246.244000
11
10.666700
21
-246.244000
0
LINE
8
Pad
10
10.666700
20
-246.244000
11
10.666700
21
-243.044000
0
LINE
8
Pad
10
10.666700
20
-243.044000
11
21.333300
21
-243.044000
0
LINE
8
Pad
10
21.333300
20
-243.044000
11
21.333300
21
-246.244000
0
LINE
8
Pad
10
21.333300
20
-246.244000
11
32.000000
21
-246.244000
0
LINE
8
Pad
10
32.000000
20
-246.244000
11
32.000000
21
-243.044000
0
LINE
8
Pad
10
32.000000
20
-243.044000
11
42.666600
21
-243.044000
0
LINE
8
Pad
10
42.666600
20
-243.044000
11
42.666600
21
-246.244000
0
LINE
8
Pad
10
42.666600
20
-246.244000
11
53.333300
21
-246.244000
0
LINE
8
Pad
10
53.333300
20
-246.244000
11
53.333300
21
-243.044000
0
LINE
8
Pad
10
53.333300
20
-243.044000
11
63.999900
21
-243.044000
0
LINE
8
Pad
10
63.999900
20
-243.044000
11
63.999900
21
-246.244000
0
LINE
8
Pad
10
63.999900
20
-246.244000
11
74.666600
21
-246.244000
0
LINE
8
Pad
10
74.666600
20
-246.244000
11
74.666600
21
-235.577000
0
LINE
8
Pad
10
74.666600
20
-235.577000
11
71.466600
21
-235.577000
0
LINE
8
Pad
10
71.466600
20
-235.577000
11
71.466600
21
-224.911000
0
LINE
8
Pad
10
71.466600
20
-224.911000
11
74.666600
21
-224.911000
0
LINE
8
Pad
10
74.666600
20
-224.911000
11
74.666600
21
-214.244000
0
LINE
8
Pad
10
74.666600
20
-214.244000
11
71.466600
21
-214.244000
0
LINE
8
Pad
10
71.466600
20
-214.244000
11
71.466600
21
-203.578000
0
LINE
8
Pad
10
71.466600
20
-203.578000
11
74.666600
21
-203.578000
0
LINE
8
Pad
10
74.666600
20
-203.578000
11
74.666600
21
-192.911000
0
LINE
8
Pad
10
74.666600
20
-192.911000
11
71.466600
21
-192.911000
0
LINE
8
Pad
10
71.466600
20
-192.911000
11
71.466600
21
-182.244000
0
LINE
8
Pad
10
71.466600
20
-182.244000
11
74.666600
21
-182.244000
0
LINE
8
Pad
10
74.666600
20
-182.244000
11
74.666600
21
-171.578000
0
LINE
8
Pad
10
74.666600
20
-171.578000
11
63.999900
21
-171.578000
0
LINE
8
Pad
10
63.999900
20
-171.578000
11
63.999900
21
-174.778000
0
LINE
8
Pad
10
63.999900
20
-174.778000
11
53.333300
21
-174.778000
0
LINE
8
Pad
10
53.333300
20
-174.778000
11
53.333300
21
-171.578000
0
LINE
8
Pad
10
53.333300
20
-171.578000
11
42.666600
21
-171.578000
0
LINE
8
Pad
10
42.666600
20
-171.578000
11
42.666600
21
-174.778000
0
LINE
8
Pad
10
42.666600
20
-174.778000
11
32.000000
21
-174.778000
0
LINE
8
Pad
10
32.000000
20
-174.778000
11
32.000000
21
-171.578000
0
LINE
8
Pad
10
32.000000
20
-171.578000
11
21.333300
21
-171.578000
0
LINE
8
Pad
10
21.333300
20
-171.578000
11
21.333300
21
-174.778000
0
LINE
8
Pad
10
21.333300
20
-174.778000
11
10.666700
21
-174.778000
0
LINE
8
Pad
10
10.666700
20
-174.778000
11
10.666700
21
-171.578000
0
LINE
8
Pad
10
10.666700
20
-171.578000
11
0.000000
21
-171.578000
0
LINE
8
Pad
10
0.000000
20
-171.578000
11
0.000000
21
-182.244000
0
LINE
8
Pad
10
0.000000
20
-182.244000
11
3.200000
21
-182.244000
0
LINE
8
Pad
10
3.200000
20
-182.244000
11
3.200000
21
-192.911000
0
LINE
8
Pad
10
3.200000
20
-192.911000
11
0.000000
21
-192.911000
0
LINE
8
Pad
10
0.000000
20
-192.911000
11
0.000000
21
-203.578000
0
LINE
8
Pad
10
0.000000
20
-203.578000
11
3.200000
21
-203.578000
0
LINE
8
Pad
10
3.200000
20
-203.578000
11
3.200000
21
-214.244000
0
LINE
8
Pad
10
3.200000
20
-214.244000
11
0.000000
21
-214.244000
0
LINE
8
Pad
10
0.000000
20
-214.244000
11
0.000000
21
-224.911000
0
LINE
8
Pad
10
0.000000
20
-224.911000
11
3.200000
21
-224.911000
0
LINE
8
Pad
10
3.200000
20
-224.911000
11
3.200000
21
-235.577000
0
LINE
8
Pad
10
3.200000
20
-235.577000
11
0.000000
21
-235.577000
0
LINE
8
Pad
10
0.000000
20
-235.577000
11
0.000000
21
-246.244000
0
LINE
8
Pad
10
0.000000
20
-246.244000
11
10.666700
21
-246.244000
0
LINE
8
Pad
10
10.666700
20
-246.244000
11
10.666700
21
-243.044000
0
LINE
8
Pad
10
10.666700
20
-243.044000
11
21.333300
21
-243.044000
0
LINE
8
Pad
10
21.333300
20
-243.044000
11
21.333300
21
-246.244000
0
LINE
8
Pad
10
21.333300
20
-246.244000
11
32.000000
21
-246.244000
0
LINE
8
Pad
10
32.000000
20
-246.244000
11
32.000000
21
-243.044000
0
LINE
8
Pad
10
32.000000
20
-243.044000
11
42.666600
21
-243.044000
0
LINE
8
Pad
10
42.666600
20
-243.044000
11
42.666600
21
-246.244000
0
LINE
8
Pad
10
42.666600
20
-246.244000
11
53.333300
21
-246.244000
0
LINE
8
Pad
10
53.333300
20
-246.244000
11
53.333300
21
-243.044000
0
LINE
8
Pad
10
53.333300
20
-243.044000
11
63.999900
21
-243.044000
0
LINE
8
Pad
10
63.999900
20
-243.044000
11
63.999900
21
-246.244000
0
LINE
8
Pad
10
63.999900
20
-246.244000
11
74.666600
21
-246.244000
0
LINE
8
Pad
10
74.666600
20
-246.244000
11
74.666600
21
-235.577000
0
LINE
8
Pad
10
74.666600
20
-235.577000
11
71.466600
21
-235.577000
0
LINE
8
Pad
10
71.466600
20
-235.577000
11
71.466600
21
-224.911000
0
LINE
8
Pad
10
71.466600
20
-224.911000
11
74.666600
21
-224.911000
0
LINE
8
Pad
10
74.666600
20
-224.911000
11
74.666600
21
-214.244000
0
LINE
8
Pad
10
74.666600
20
-214.244000
11
71.466600
21
-214.244000
0
LINE
8
Pad
10
71.466600
20
-214.244000
11
71.466600
21
-203.578000
0
LINE
8
Pad
10
71.466600
20
-203.578000
11
74.666600
21
-203.578000
0
LINE
8
Pad
10
74.666600
20
-203.578000
11
74.666600
21
-192.911000
0
LINE
8
Pad
10
74.666600
20
-192.911000
11
71.466600
21
-192.911000
0
LINE
8
Pad
10
71.466600
20
-192.911000
11
71.466600
21
-182.244000
0
LINE
8
Pad
10
71.466600
20
-182.244000
11
74.666600
21
-182.244000
0
LINE
8
Pad
10
74.666600
20
-182.244000
11
74.666600
21
-171.578000
0
LINE
8
Pad
10
74.666600
20
-171.578000
11
63.999900
21
-171.578000
0
LINE
8
Pad
10
63.999900
20
-171.578000
11
63.999900
21
-174.778000
0
LINE
8
Pad
10
63.999900
20
-174.778000
11
53.333300
21
-174.778000
0
LINE
8
Pad
10
53.333300
20
-174.778000
11
53.333300
21
-171.578000
0
LINE
8
Pad
10
53.333300
20
-171.578000
11
42.666600
21
-171.578000
0
LINE
8
Pad
10
42.666600
20
-171.578000
11
42.666600
21
-174.778000
0
LINE
8
Pad
10
42.666600
20
-174.778000
11
32.000000
21
-174.778000
0
LINE
8
Pad
10
32.000000
20
-174.778000
11
32.000000
21
-171.578000
0
LINE
8
Pad
10
32.000000
20
-171.578000
11
21.333300
21
-171.578000
0
LINE
8
Pad
10
21.333300
20
-171.578000
11
21.333300
21
-174.778000
0
LINE
8
Pad
10
21.333300
20
-174.778000
11
10.666700
21
-174.778000
0
LINE
8
Pad
10
10.666700
20
-174.778000
11
10.666700
21
-171.578000
0
LINE
8
Pad
10
10.666700
20
-171.578000
11
0.000000
21
-171.578000
0
LINE
8
Pad
10
0.000000
20
-171.578000
11
0.000000
21
-182.244000
0
LINE
8
Pad
10
0.000000
20
-182.244000
11
3.200000
21
-182.244000
0
LINE
8
Pad
10
3.200000
20
-182.244000
11
3.200000
21
-192.911000
0
LINE
8
Pad
10
3.200000
20
-192.911000
11
0.000000
21
-192.911000
0
LINE
8
Pad
10
0.000000
20
-192.911000
11
0.000000
21
-203.578000
0
LINE
8
Pad
10
0.000000
20
-203.578000
11
3.200000
21
-203.578000
0
LINE
8
Pad
10
3.200000
20
-203.578000
11
3.200000
21
-214.244000
0
LINE
8
Pad
10
3.200000
20
-214.244000
11
0.000000
21
-214.244000
0
LINE
8
Pad
10
0.000000
20
-214.244000
11
0.000000
21
-224.911000
0
LINE
8
Pad
10
0.000000
20
-224.911000
11
3.200000
21
-224.911000
0
LINE
8
Pad
10
3.200000
20
-224.911000
11
3.200000
21
-235.577000
0
LINE
8
Pad
10
3.200000
20
-235.577000
11
0.000000
21
-235.577000
0
LINE
8
Pad
10
0.000000
20
-235.577000
11
0.000000
21
-246.244000
0
LINE
8
Pad
10
0.000000
20
-246.244000
11
0.000000
21
-246.244000
0
LINE
8
Pad
10
0.000000
20
-224.911000
11
0.000000
21
-224.911000
0
LINE
8
Pad
10
0.000000
20
-246.244000
11
0.000000
21
-224.911000
0
LINE
8
Pad
10
0.000000
20
-246.244000
11
0.000000
21
-224.911000
0
LINE
8
Pad
10
0.000000
20
-224.911000
11
0.000000
21
-224.911000
0
LINE
8
Pad
10
68.266600
20
-224.911000
11
68.266600
21
-224.911000
0
LINE
8
Pad
10
0.000000
20
-224.911000
11
68.266600
21
-224.911000
0
LINE
8
Pad
10
0.000000
20
-224.911000
11
68.266600
21
-224.911000
0
LINE
8
Pad
10
68.266600
20
-224.911000
11
68.266600
21
-224.911000
0
LINE
8
Pad
10
68.266600
20
-246.244000
11
68.266600
21
-246.244000
0
LINE
8
Pad
10
68.266600
20
-224.911000
11
68.266600
21
-246.244000
0
LINE
8
Pad
10
68.266600
20
-224.911000
11
68.266600
21
-246.244000
0
LINE
8
Pad
10
68.266600
20
-249.444000
11
68.266600
21
-249.444000
0
LINE
8
Pad
10
68.266600
20
-246.244000
11
68.266600
21
-246.244000
0
LINE
8
Pad
10
68.266600
20
-249.444000
11
68.266600
21
-246.244000
0
LINE
8
Pad
10
68.266600
20
-249.444000
11
68.266600
21
-246.244000
0
LINE
8
Pad
10
50.133300
20
-249.444000
11
50.133300
21
-249.444000
0
LINE
8
Pad
10
68.266600
20
-249.444000
11
68.266600
21
-249.444000
0
LINE
8
Pad
10
50.133300
20
-249.444000
11
68.266600
21
-249.444000
0
LINE
8
Pad
10
50.133300
20
-249.444000
11
68.266600
21
-249.444000
0
LINE
8
Pad
10
50.133300
20
-246.244000
11
50.133300
21
-246.244000
0
LINE
8
Pad
10
50.133300
20
-249.444000
11
50.133300
21
-249.444000
0
LINE
8
Pad
10
50.133300
20
-246.244000
11
50.133300
21
-249.444000
0
LINE
8
Pad
10
50.133300
20
-246.244000
11
50.133300
21
-249.444000
0
LINE
8
Pad
10
18.133300
20
-246.244000
11
18.133300
21
-246.244000
0
LINE
8
Pad
10
50.133300
20
-246.244000
11
50.133300
21
-246.244000
0
LINE
8
Pad
10
18.133300
20
-246.244000
11
50.133300
21
-246.244000
0
LINE
8
Pad
10
18.133300
20
-246.244000
11
50.133300
21
-246.244000
0
LINE
8
Pad
10
18.133300
20
-249.444000
11
18.133300
21
-249.444000
0
LINE
8
Pad
10
18.133300
20
-246.244000
11
18.133300
21
-246.244000
0
LINE
8
Pad
10
18.133300
20
-249.444000
11
18.133300
21
-246.244000
0
LINE
8
Pad
10
18.133300
20
-249.444000
11
18.133300
21
-246.244000
0
LINE
8
Pad
10
0.000000
20
-249.444000
11
0.000000
21
-249.444000
0
LINE
8
Pad
10
18.133300
20
-249.444000
11
18.133300
21
-249.444000
0
LINE
8
Pad
10
0.000000
20
-249.444000
11
18.133300
21
-249.444000
0
LINE
8
Pad
10
0.000000
20
-249.444000
11
18.133300
21
-249.444000
0
LINE
8
Pad
10
0.000000
20
-246.244000
11
0.000000
21
-246.244000
0
LINE
8
Pad
10
0.000000
20
-249.444000
11
0.000000
21
-249.444000
0
LINE
8
Pad
10
0.000000
20
-246.244000
11
0.000000
21
-249.444000
0
LINE
8
Pad
10
0.000000
20
-246.244000
11
0.000000
21
-249.444000
0
LINE
8
Pad
10
0.000000
20
-246.244000
11
0.000000
21
-224.911000
0
LINE
8
Pad
10
0.000000
20
-224.911000
11
68.266600
21
-224.911000
0
LINE
8
Pad
10
68.266600
20
-224.911000
11
68.266600
21
-246.244000
0
LINE
8
Pad
10
68.266600
20
-249.444000
11
68.266600
21
-246.244000
0
LINE
8
Pad
10
50.133300
20
-249.444000
11
68.266600
21
-249.444000
0
LINE
8
Pad
10
50.133300
20
-246.244000
11
50.133300
21
-249.444000
0
LINE
8
Pad
10
18.133300
20
-246.244000
11
50.133300
21
-246.244000
0
LINE
8
Pad
10
18.133300
20
-249.444000
11
18.133300
21
-246.244000
0
LINE
8
Pad
10
0.000000
20
-249.444000
11
18.133300
21
-249.444000
0
LINE
8
Pad
10
0.000000
20
-246.244000
11
0.000000
21
-249.444000
0
LINE
8
Pad
10
0.000000
20
-246.244000
11
0.000000
21
-224.911000
0
LINE
8
Pad
10
0.000000
20
-224.911000
11
68.266600
21
-224.911000
0
LINE
8
Pad
10
68.266600
20
-224.911000
11
68.266600
21
-246.244000
0
LINE
8
Pad
10
68.266600
20
-249.444000
11
68.266600
21
-246.244000
0
LINE
8
Pad
10
50.133300
20
-249.444000
11
68.266600
21
-249.444000
0
LINE
8
Pad
10
50.133300
20
-246.244000
11
50.133300
21
-249.444000
0
LINE
8
Pad
10
18.133300
20
-246.244000
11
50.133300
21
-246.244000
0
LINE
8
Pad
10
18.133300
20
-249.444000
11
18.133300
21
-246.244000
0
LINE
8
Pad
10
0.000000
20
-249.444000
11
18.133300
21
-249.444000
0
LINE
8
Pad
10
0.000000
20
-246.244000
11
0.000000
21
-249.444000
0
LINE
8
Shape2DView
10
13.866700
20
-243.044000
11
13.866700
21
-246.244000
0
LINE
8
Shape2DView
10
3.200000
20
-243.044000
11
13.866700
21
-243.044000
0
LINE
8
Shape2DView
10
3.200000
20
-243.044000
11
3.200000
21
-235.577000
0
LINE
8
Shape2DView
10
3.200000
20
-235.577000
11
0.000000
21
-235.577000
0
LINE
8
Shape2DView
10
0.000000
20
-235.577000
11
0.000000
21
-224.911000
0
LINE
8
Shape2DView
10
0.000000
20
-224.911000
11
3.200000
21
-224.911000
0
LINE
8
Shape2DView
10
3.200000
20
-224.911000
11
3.200000
21
-214.244000
0
LINE
8
Shape2DView
10
3.200000
20
-214.244000
11
-5.333330
21
-214.244000
0
LINE
8
Shape2DView
10
-5.333330
20
-214.244000
11
-5.333330
21
-203.578000
0
LINE
8
Shape2DView
10
-5.333330
20
-203.578000
11
3.200000
21
-203.578000
0
LINE
8
Shape2DView
10
3.200000
20
-203.578000
11
3.200000
21
-192.911000
0
LINE
8
Shape2DView
10
3.200000
20
-192.911000
11
0.000000
21
-192.911000
0
LINE
8
Shape2DView
10
0.000000
20
-192.911000
11
0.000000
21
-182.244000
0
LINE
8
Shape2DView
10
0.000000
20
-182.244000
11
3.200000
21
-182.244000
0
LINE
8
Shape2DView
10
3.200000
20
-182.244000
11
3.200000
21
-174.778000
0
LINE
8
Shape2DView
10
13.866700
20
-174.778000
11
3.200000
21
-174.778000
0
LINE
8
Shape2DView
10
13.866700
20
-171.578000
11
13.866700
21
-174.778000
0
LINE
8
Shape2DView
10
13.866700
20
-171.578000
11
21.333300
21
-171.578000
0
LINE
8
Shape2DView
10
21.333300
20
-174.778000
11
21.333300
21
-171.578000
0
LINE
8
Shape2DView
10
18.133300
20
-174.778000
11
21.333300
21
-174.778000
0
LINE
8
Shape2DView
10
18.133300
20
-192.911000
11
18.133300
21
-174.778000
0
LINE
8
Shape2DView
10
21.333300
20
-192.911000
11
18.133300
21
-192.911000
0
LINE
8
Shape2DView
10
21.333300
20
-203.578000
11
21.333300
21
-192.911000
0
LINE
8
Shape2DView
10
16.000000
20
-203.578000
11
21.333300
21
-203.578000
0
LINE
8
Shape2DView
10
16.000000
20
-214.244000
11
16.000000
21
-203.578000
0
LINE
8
Shape2DView
10
21.333300
20
-214.244000
11
16.000000
21
-214.244000
0
LINE
8
Shape2DView
10
21.333300
20
-224.911000
11
21.333300
21
-214.244000
0
LINE
8
Shape2DView
10
18.133300
20
-224.911000
11
21.333300
21
-224.911000
0
LINE
8
Shape2DView
10
18.133300
20
-243.044000
11
18.133300
21
-224.911000
0
LINE
8
Shape2DView
10
21.333300
20
-243.044000
11
18.133300
21
-243.044000
0
LINE
8
Shape2DView
10
21.333300
20
-246.244000
11
21.333300
21
-243.044000
0
LINE
8
Shape2DView
10
13.866700
20
-246.244000
11
21.333300
21
-246.244000
0
LINE
8
Shape2DView
10
3.200000
20
-235.577000
11
0.000000
21
-235.577000
0
LINE
8
Shape2DView
10
0.000000
20
-235.577000
11
0.000000
21
-224.911000
0
LINE
8
Shape2DView
10
0.000000
20
-224.911000
11
3.200000
21
-224.911000
0
LINE
8
Shape2DView
10
3.200000
20
-224.911000
11
3.200000
21
-214.244000
0
LINE
8
Shape2DView
10
3.200000
20
-214.244000
11
0.000000
21
-214.244000
0
LINE
8
Shape2DView
10
0.000000
20
-214.244000
11
0.000000
21
-203.578000
0
LINE
8
Shape2DView
10
0.000000
20
-203.578000
11
3.200000
21
-203.578000
0
LINE
8
Shape2DView
10
3.200000
20
-203.578000
11
3.200000
21
-192.911000
0
LINE
8
Shape2DView
10
3.200000
20
-192.911000
11
0.000000
21
-192.911000
0
LINE
8
Shape2DView
10
0.000000
20
-192.911000
11
0.000000
21
-182.244000
0
LINE
8
Shape2DView
10
0.000000
20
-182.244000
11
3.200000
21
-182.244000
0
LINE
8
Shape2DView
10
3.200000
20
-182.244000
11
3.200000
21
-174.778000
0
LINE
8
Shape2DView
10
3.200000
20
-174.778000
11
13.866700
21
-174.778000
0
LINE
8
Shape2DView
10
13.866700
20
-174.778000
11
13.866700
21
-171.578000
0
LINE
8
Shape2DView
10
13.866700
20
-171.578000
11
21.333300
21
-171.578000
0
LINE
8
Shape2DView
10
21.333300
20
-171.578000
11
21.333300
21
-246.244000
0
LINE
8
Shape2DView
10
21.333300
20
-246.244000
11
13.866700
21
-246.244000
0
LINE
8
Shape2DView
10
13.866700
20
-246.244000
11
13.866700
21
-243.044000
0
LINE
8
Shape2DView
10
13.866700
20
-243.044000
11
3.200000
21
-243.044000
0
LINE
8
Shape2DView
10
3.200000
20
-243.044000
11
3.200000
21
-235.577000
0
LINE
8
Shape2DView
10
21.333300
20
-249.444000
11
13.866700
21
-249.444000
0
LINE
8
Shape2DView
10
13.866700
20
-249.444000
11
13.866700
21
-246.244000
0
LINE
8
Shape2DView
10
13.866700
20
-246.244000
11
3.200000
21
-246.244000
0
LINE
8
Shape2DView
10
3.200000
20
-246.244000
11
3.200000
21
-256.911000
0
LINE
8
Shape2DView
10
3.200000
20
-256.911000
11
-3.200000
21
-256.911000
0
LINE
8
Shape2DView
10
-3.200000
20
-256.911000
11
-3.200000
21
-267.577000
0
LINE
8
Shape2DView
10
-3.200000
20
-267.577000
11
3.200000
21
-267.577000
0
LINE
8
Shape2DView
10
3.200000
20
-267.577000
11
3.200000
21
-278.244000
0
LINE
8
Shape2DView
10
3.200000
20
-278.244000
11
0.000000
21
-278.244000
0
LINE
8
Shape2DView
10
0.000000
20
-278.244000
11
0.000000
21
-288.911000
0
LINE
8
Shape2DView
10
0.000000
20
-288.911000
11
3.200000
21
-288.911000
0
LINE
8
Shape2DView
10
3.200000
20
-288.911000
11
3.200000
21
-299.577000
0
LINE
8
Shape2DView
10
3.200000
20
-299.577000
11
-3.200000
21
-299.577000
0
LINE
8
Shape2DView
10
-3.200000
20
-299.577000
11
-3.200000
21
-310.244000
0
LINE
8
Shape2DView
10
-3.200000
20
-310.244000
11
3.200000
21
-310.244000
0
LINE
8
Shape2DView
10
3.200000
20
-310.244000
11
3.200000
21
-320.911000
0
LINE
8
Shape2DView
10
3.200000
20
-320.911000
11
13.866700
21
-320.911000
0
LINE
8
Shape2DView
10
13.866700
20
-320.911000
11
13.866700
21
-317.711000
0
LINE
8
Shape2DView
10
13.866700
20
-317.711000
11
21.333300
21
-317.711000
0
LINE
8
Shape2DView
10
21.333300
20
-310.244000
11
21.333300
21
-317.711000
0
LINE
8
Shape2DView
10
18.133300
20
-310.244000
11
21.333300
21
-310.244000
0
LINE
8
Shape2DView
10
18.133300
20
-299.577000
11
18.133300
21
-310.244000
0
LINE
8
Shape2DView
10
21.333300
20
-299.577000
11
18.133300
21
-299.577000
0
LINE
8
Shape2DView
10
21.333300
20
-267.577000
11
21.333300
21
-299.577000
0
LINE
8
Shape2DView
10
18.133300
20
-267.577000
11
21.333300
21
-267.577000
0
LINE
8
Shape2DView
10
18.133300
20
-256.911000
11
18.133300
21
-267.577000
0
LINE
8
Shape2DView
10
21.333300
20
-256.911000
11
18.133300
21
-256.911000
0
LINE
8
Shape2DView
10
21.333300
20
-249.444000
11
21.333300
21
-256.911000
0
LINE
8
Pad
10
0.000000
20
-246.244000
11
0.000000
21
-246.244000
0
LINE
8
Pad
10
10.666700
20
-246.244000
11
10.666700
21
-246.244000
0
LINE
8
Pad
10
0.000000
20
-246.244000
11
10.666700
21
-246.244000
0
LINE
8
Pad
10
0.000000
20
-246.244000
11
10.666700
21
-246.244000
0
LINE
8
Pad
10
10.666700
20
-246.244000
11
10.666700
21
-246.244000
0
LINE
8
Pad
10
10.666700
20
-243.044000
11
10.666700
21
-243.044000
0
LINE
8
Pad
10
10.666700
20
-246.244000
11
10.666700
21
-243.044000
0
LINE
8
Pad
10
10.666700
20
-246.244000
11
10.666700
21
-243.044000
0
LINE
8
Pad
10
10.666700
20
-243.044000
11
10.666700
21
-243.044000
0
LINE
8
Pad
10
21.333300
20
-243.044000
11
21.333300
21
-243.044000
0
LINE
8
Pad
10
10.666700
20
-243.044000
11
21.333300
21
-243.044000
0
LINE
8
Pad
10
10.666700
20
-243.044000
11
21.333300
21
-243.044000
0
LINE
8
Pad
10
21.333300
20
-243.044000
11
21.333300
21
-243.044000
0
LINE
8
Pad
10
21.333300
20
-246.244000
11
21.333300
21
-246.244000
0
LINE
8
Pad
10
21.333300
20
-243.044000
11
21.333300
21
-246.244000
0
LINE
8
Pad
10
21.333300
20
-243.044000
11
21.333300
21
-246.244000
0
LINE
8
Pad
10
21.333300
20
-246.244000
11
21.333300
21
-246.244000
0
LINE
8
Pad
10
32.000000
20
-246.244000
11
32.000000
21
-246.244000
0
LINE
8
Pad
10
21.333300
20
-246.244000
11
32.000000
21
-246.244000
0
LINE
8
Pad
10
21.333300
20
-246.244000
11
32.000000
21
-246.244000
0
LINE
8
Pad
10
32.000000
20
-246.244000
11
32.000000
21
-246.244000
0
LINE
8
Pad
10
32.000000
20
-243.044000
11
32.000000
21
-243.044000
0
LINE
8
Pad
10
32.000000
20
-246.244000
11
32.000000
21
-243.044000
0
LINE
8
Pad
10
32.000000
20
-246.244000
11
32.000000
21
-243.044000
0
LINE
8
Pad
10
32.000000
20
-243.044000
11
32.000000
21
-243.044000
0
LINE
8
Pad
10
42.666600
20
-243.044000
11
42.666600
21
-243.044000
0
LINE
8
Pad
10
32.000000
20
-243.044000
11
42.666600
21
-243.044000
0
LINE
8
Pad
10
32.000000
20
-243.044000
11
42.666600
21
-243.044000
0
LINE
8
Pad
10
42.666600
20
-243.044000
11
42.666600
21
-243.044000
0
LINE
8
Pad
10
42.666600
20
-246.244000
11
42.666600
21
-246.244000
0
LINE
8
Pad
10
42.666600
20
-243.044000
11
42.666600
21
-246.244000
0
LINE
8
Pad
10
42.666600
20
-243.044000
11
42.666600
21
-246.244000
0
LINE
8
Pad
10
42.666600
20
-246.244000
11
42.666600
21
-246.244000
0
LINE
8
Pad
10
53.333300
20
-246.244000
11
53.333300
21
-246.244000
0
LINE
8
Pad
10
42.666600
20
-246.244000
11
53.333300
21
-246.244000
0
LINE
8
Pad
10
42.666600
20
-246.244000
11
53.333300
21
-246.244000
0
LINE
8
Pad
10
53.333300
20
-246.244000
11
53.333300
21
-246.244000
0
LINE
8
Pad
10
53.333300
20
-243.044000
11
53.333300
21
-243.044000
0
LINE
8
Pad
10
53.333300
20
-246.244000
11
53.333300
21
-243.044000
0
LINE
8
Pad
10
53.333300
20
-246.244000
11
53.333300
21
-243.044000
0
LINE
8
Pad
10
53.333300
20
-243.044000
11
53.333300
21
-243.044000
0
LINE
8
Pad
10
63.999900
20
-243.044000
11
63.999900
21
-243.044000
0
LINE
8
Pad
10
53.333300
20
-243.044000
11
63.999900
21
-243.044000
0
LINE
8
Pad
10
53.333300
20
-243.044000
11
63.999900
21
-243.044000
0
LINE
8
Pad
10
63.999900
20
-243.044000
11
63.999900
21
-243.044000
0
LINE
8
Pad
10
63.999900
20
-246.244000
11
63.999900
21
-246.244000
0
LINE
8
Pad
10
63.999900
20
-243.044000
11
63.999900
21
-246.244000
0
LINE
8
Pad
10
63.999900
20
-243.044000
11
63.999900
21
-246.244000
0
LINE
8
Pad
10
63.999900
20
-246.244000
11
63.999900
21
-246.244000
0
LINE
8
Pad
10
74.666600
20
-246.244000
11
74.666600
21
-246.244000
0
LINE
8
Pad
10
63.999900
20
-246.244000
11
74.666600
21
-246.244000
0
LINE
8
Pad
10
63.999900
20
-246.244000
11
74.666600
21
-246.244000
0
LINE
8
Pad
10
74.666600
20
-246.244000
11
74.666600
21
-246.244000
0
LINE
8
Pad
10
74.666600
20
-235.577000
11
74.666600
21
-235.577000
0
LINE
8
Pad
10
74.666600
20
-246.244000
11
74.666600
21
-235.577000
0
LINE
8
Pad
10
74.666600
20
-246.244000
11
74.666600
21
-235.577000
0
LINE
8
Pad
10
74.666600
20
-235.577000
11
74.666600
21
-235.577000
0
LINE
8
Pad
10
71.466600
20
-235.577000
11
71.466600
21
-235.577000
0
LINE
8
Pad
10
74.666600
20
-235.577000
11
71.466600
21
-235.577000
0
LINE
8
Pad
10
74.666600
20
-235.577000
11
71.466600
21
-235.577000
0
LINE
8
Pad
10
71.466600
20
-235.577000
11
71.466600
21
-235.577000
0
LINE
8
Pad
10
71.466600
20
-224.911000
11
71.466600
21
-224.911000
0
LINE
8
Pad
10
71.466600
20
-235.577000
11
71.466600
21
-224.911000
0
LINE
8
Pad
10
71.466600
20
-235.577000
11
71.466600
21
-224.911000
0
LINE
8
Pad
10
71.466600
20
-224.911000
11
71.466600
21
-224.911000
0
LINE
8
Pad
10
74.666600
20
-224.911000
11
74.666600
21
-224.911000
0
LINE
8
Pad
10
71.466600
20
-224.911000
11
74.666600
21
-224.911000
0
LINE
8
Pad
10
71.466600
20
-224.911000
11
74.666600
21
-224.911000
0
LINE
8
Pad
10
74.666600
20
-224.911000
11
74.666600
21
-224.911000
0
LINE
8
Pad
10
74.666600
20
-214.244000
11
74.666600
21
-214.244000
0
LINE
8
Pad
10
74.666600
20
-224.911000
11
74.666600
21
-214.244000
0
LINE
8
Pad
10
74.666600
20
-224.911000
11
74.666600
21
-214.244000
0
LINE
8
Pad
10
74.666600
20
-214.244000
11
74.666600
21
-214.244000
0
LINE
8
Pad
10
71.466600
20
-214.244000
11
71.466600
21
-214.244000
0
LINE
8
Pad
10
74.666600
20
-214.244000
11
71.466600
21
-214.244000
0
LINE
8
Pad
10
74.666600
20
-214.244000
11
71.466600
21
-214.244000
0
LINE
8
Pad
10
71.466600
20
-214.244000
11
71.466600
21
-214.244000
0
LINE
8
Pad
10
71.466600
20
-203.578000
11
71.466600
21
-203.578000
0
LINE
8
Pad
10
71.466600
20
-214.244000
11
71.466600
21
-203.578000
0
LINE
8
Pad
10
71.466600
20
-214.244000
11
71.466600
21
-203.578000
0
LINE
8
Pad
10
71.466600
20
-203.578000
11
71.466600
21
-203.578000
0
LINE
8
Pad
10
74.666600
20
-203.578000
11
74.666600
21
-203.578000
0
LINE
8
Pad
10
71.466600
20
-203.578000
11
74.666600
21
-203.578000
0
LINE
8
Pad
10
71.466600
20
-203.578000
11
74.666600
21
-203.578000
0
LINE
8
Pad
10
74.666600
20
-203.578000
11
74.666600
21
-203.578000
0
LINE
8
Pad
10
74.666600
20
-192.911000
11
74.666600
21
-192.911000
0
LINE
8
Pad
10
74.666600
20
-203.578000
11
74.666600
21
-192.911000
0
LINE
8
Pad
10
74.666600
20
-203.578000
11
74.666600
21
-192.911000
0
LINE
8
Pad
10
74.666600
20
-192.911000
11
74.666600
21
-192.911000
0
LINE
8
Pad
10
71.466600
20
-192.911000
11
71.466600
21
-192.911000
0
LINE
8
Pad
10
74.666600
20
-192.911000
11
71.466600
21
-192.911000
0
LINE
8
Pad
10
74.666600
20
-192.911000
11
71.466600
21
-192.911000
0
LINE
8
Pad
10
71.466600
20
-192.911000
11
71.466600
21
-192.911000
0
LINE
8
Pad
10
71.466600
20
-182.244000
11
71.466600
21
-182.244000
0
LINE
8
Pad
10
71.466600
20
-192.911000
11
71.466600
21
-182.244000
0
LINE
8
Pad
10
71.466600
20
-192.911000
11
71.466600
21
-182.244000
0
LINE
8
Pad
10
71.466600
20
-182.244000
11
71.466600
21
-182.244000
0
LINE
8
Pad
10
74.666600
20
-182.244000
11
74.666600
21
-182.244000
0
LINE
8
Pad
10
71.466600
20
-182.244000
11
74.666600
21
-182.244000
0
LINE
8
Pad
10
71.466600
20
-182.244000
11
74.666600
21
-182.244000
0
LINE
8
Pad
10
74.666600
20
-182.244000
11
74.666600
21
-182.244000
0
LINE
8
Pad
10
74.666600
20
-171.578000
11
74.666600
21
-171.578000
0
LINE
8
Pad
10
74.666600
20
-182.244000
11
74.666600
21
-171.578000
0
LINE
8
Pad
10
74.666600
20
-182.244000
11
74.666600
21
-171.578000
0
LINE
8
Pad
10
74.666600
20
-171.578000
11
74.666600
21
-171.578000
0
LINE
8
Pad
10
63.999900
20
-171.578000
11
63.999900
21
-171.578000
0
LINE
8
Pad
10
74.666600
20
-171.578000
11
63.999900
21
-171.578000
0
LINE
8
Pad
10
74.666600
20
-171.578000
11
63.999900
21
-171.578000
0
LINE
8
Pad
10
63.999900
20
-171.578000
11
63.999900
21
-171.578000
0
LINE
8
Pad
10
63.999900
20
-174.778000
11
63.999900
21
-174.778000
0
LINE
8
Pad
10
63.999900
20
-171.578000
11
63.999900
21
-174.778000
0
LINE
8
Pad
10
63.999900
20
-171.578000
11
63.999900
21
-174.778000
0
LINE
8
Pad
10
63.999900
20
-174.778000
11
63.999900
21
-174.778000
0
LINE
8
Pad
10
53.333300
20
-174.778000
11
53.333300
21
-174.778000
0
LINE
8
Pad
10
63.999900
20
-174.778000
11
53.333300
21
-174.778000
0
LINE
8
Pad
10
63.999900
20
-174.778000
11
53.333300
21
-174.778000
0
LINE
8
Pad
10
53.333300
20
-174.778000
11
53.333300
21
-174.778000
0
LINE
8
Pad
10
53.333300
20
-171.578000
11
53.333300
21
-171.578000
0
LINE
8
Pad
10
53.333300
20
-174.778000
11
53.333300
21
-171.578000
0
LINE
8
Pad
10
53.333300
20
-174.778000
11
53.333300
21
-171.578000
0
LINE
8
Pad
10
53.333300
20
-171.578000
11
53.333300
21
-171.578000
0
LINE
8
Pad
10
42.666600
20
-171.578000
11
42.666600
21
-171.578000
0
LINE
8
Pad
10
53.333300
20
-171.578000
11
42.666600
21
-171.578000
0
LINE
8
Pad
10
53.333300
20
-171.578000
11
42.666600
21
-171.578000
0
LINE
8
Pad
10
42.666600
20
-171.578000
11
42.666600
21
-171.578000
0
LINE
8
Pad
10
42.666600
20
-174.778000
11
42.666600
21
-174.778000
0
LINE
8
Pad
10
42.666600
20
-171.578000
11
42.666600
21
-174.778000
0
LINE
8
Pad
10
42.666600
20
-171.578000
11
42.666600
21
-174.778000
0
LINE
8
Pad
10
42.666600
20
-174.778000
11
42.666600
21
-174.778000
0
LINE
8
Pad
10
32.000000
20
-174.778000
11
32.000000
21
-174.778000
0
LINE
8
Pad
10
42.666600
20
-174.778000
11
32.000000
21
-174.778000
0
LINE
8
Pad
10
42.666600
20
-174.778000
11
32.000000
21
-174.778000
0
LINE
8
Pad
10
32.000000
20
-174.778000
11
32.000000
21
-174.778000
0
LINE
8
Pad
10
32.000000
20
-171.578000
11
32.000000
21
-171.578000
0
LINE
8
Pad
10
32.000000
20
-174.778000
11
32.000000
21
-171.578000
0
LINE
8
Pad
10
32.000000
20
-174.778000
11
32.000000
21
-171.578000
0
LINE
8
Pad
10
32.000000
20
-171.578000
11
32.000000
21
-171.578000
0
LINE
8
Pad
10
21.333300
20
-171.578000
11
21.333300
21
-171.578000
0
LINE
8
Pad
10
32.000000
20
-171.578000
11
21.333300
21
-171.578000
0
LINE
8
Pad
10
32.000000
20
-171.578000
11
21.333300
21
-171.578000
0
LINE
8
Pad
10
21.333300
20
-171.578000
11
21.333300
21
-171.578000
0
LINE
8
Pad
10
21.333300
20
-174.778000
11
21.333300
21
-174.778000
0
LINE
8
Pad
10
21.333300
20
-171.578000
11
21.333300
21
-174.778000
0
LINE
8
Pad
10
21.333300
20
-171.578000
11
21.333300
21
-174.778000
0
LINE
8
Pad
10
21.333300
20
-174.778000
11
21.333300
21
-174.778000
0
LINE
8
Pad
10
10.666700
20
-174.778000
11
10.666700
21
-174.778000
0
LINE
8
Pad
10
21.333300
20
-174.778000
11
10.666700
21
-174.778000
0
LINE
8
Pad
10
21.333300
20
-174.778000
11
10.666700
21
-174.778000
0
LINE
8
Pad
10
10.666700
20
-174.778000
11
10.666700
21
-174.778000
0
LINE
8
Pad
10
10.666700
20
-171.578000
11
10.666700
21
-171.578000
0
LINE
8
Pad
10
10.666700
20
-174.778000
11
10.666700
21
-171.578000
0
LINE
8
Pad
10
10.666700
20
-174.778000
11
10.666700
21
-171.578000
0
LINE
8
Pad
10
10.666700
20
-171.578000
11
10.666700
21
-171.578000
0
LINE
8
Pad
10
0.000000
20
-171.578000
11
0.000000
21
-171.578000
0
LINE
8
Pad
10
10.666700
20
-171.578000
11
0.000000
21
-171.578000
0
LINE
8
Pad
10
10.666700
20
-171.578000
11
0.000000
21
-171.578000
0
LINE
8
Pad
10
0.000000
20
-171.578000
11
0.000000
21
-171.578000
0
LINE
8
Pad
10
0.000000
20
-182.244000
11
0.000000
21
-182.244000
0
LINE
8
Pad
10
0.000000
20
-171.578000
11
0.000000
21
-182.244000
0
LINE
8
Pad
10
0.000000
20
-171.578000
11
0.000000
21
-182.244000
0
LINE
8
Pad
10
0.000000
20
-182.244000
11
0.000000
21
-182.244000
0
LINE
8
Pad
10
3.200000
20
-182.244000
11
3.200000
21
-182.244000
0
LINE
8
Pad
10
0.000000
20
-182.244000
11
3.200000
21
-182.244000
0
LINE
8
Pad
10
0.000000
20
-182.244000
11
3.200000
21
-182.244000
0
LINE
8
Pad
10
3.200000
20
-182.244000
11
3.200000
21
-182.244000
0
LINE
8
Pad
10
3.200000
20
-192.911000
11
3.200000
21
-192.911000
0
LINE
8
Pad
10
3.200000
20
-182.244000
11
3.200000
21
-192.911000
0
LINE
8
Pad
10
3.200000
20
-182.244000
11
3.200000
21
-192.911000
0
LINE
8
Pad
10
3.200000
20
-192.911000
11
3.200000
21
-192.911000
0
LINE
8
Pad
10
0.000000
20
-192.911000
11
0.000000
21
-192.911000
0
LINE
8
Pad
10
3.200000
20
-192.911000
11
0.000000
21
-192.911000
0
LINE
8
Pad
10
3.200000
20
-192.911000
11
0.000000
21
-192.911000
0
LINE
8
Pad
10
0.000000
20
-192.911000
11
0.000000
21
-192.911000
0
LINE
8
Pad
10
0.000000
20
-203.578000
11
0.000000
21
-203.578000
0
LINE
8
Pad
10
0.000000
20
-192.911000
11
0.000000
21
-203.578000
0
LINE
8
Pad
10
0.000000
20
-192.911000
11
0.000000
21
-203.578000
0
LINE
8
Pad
10
0.000000
20
-203.578000
11
0.000000
21
-203.578000
0
LINE
8
Pad
10
3.200000
20
-203.578000
11
3.200000
21
-203.578000
0
LINE
8
Pad
10
0.000000
20
-203.578000
11
3.200000
21
-203.578000
0
LINE
8
Pad
10
0.000000
20
-203.578000
11
3.200000
21
-203.578000
0
LINE
8
Pad
10
3.200000
20
-203.578000
11
3.200000
21
-203.578000
0
LINE
8
Pad
10
3.200000
20
-214.244000
11
3.200000
21
-214.244000
0
LINE
8
Pad
10
3.200000
20
-203.578000
11
3.200000
21
-214.244000
0
LINE
8
Pad
10
3.200000
20
-203.578000
11
3.200000
21
-214.244000
0
LINE
8
Pad
10
3.200000
20
-214.244000
11
3.200000
21
-214.244000
0
LINE
8
Pad
10
0.000000
20
-214.244000
11
0.000000
21
-214.244000
0
LINE
8
Pad
10
3.200000
20
-214.244000
11
0.000000
21
-214.244000
0
LINE
8
Pad
10
3.200000
20
-214.244000
11
0.000000
21
-214.244000
0
LINE
8
Pad
10
0.000000
20
-214.244000
11
0.000000
21
-214.244000
0
LINE
8
Pad
10
0.000000
20
-224.911000
11
0.000000
21
-224.911000
0
LINE
8
Pad
10
0.000000
20
-214.244000
11
0.000000
21
-224.911000
0
LINE
8
Pad
10
0.000000
20
-214.244000
11
0.000000
21
-224.911000
0
LINE
8
Pad
10
0.000000
20
-224.911000
11
0.000000
21
-224.911000
0
LINE
8
Pad
10
3.200000
20
-224.911000
11
3.200000
21
-224.911000
0
LINE
8
Pad
10
0.000000
20
-224.911000
11
3.200000
21
-224.911000
0
LINE
8
Pad
10
0.000000
20
-224.911000
11
3.200000
21
-224.911000
0
LINE
8
Pad
10
3.200000
20
-224.911000
11
3.200000
21
-224.911000
0
LINE
8
Pad
10
3.200000
20
-235.577000
11
3.200000
21
-235.577000
0
LINE
8
Pad
10
3.200000
20
-224.911000
11
3.200000
21
-235.577000
0
LINE
8
Pad
10
3.200000
20
-224.911000
11
3.200000
21
-235.577000
0
LINE
8
Pad
10
3.200000
20
-235.577000
11
3.200000
21
-235.577000
0
LINE
8
Pad
10
0.000000
20
-235.577000
11
0.000000
21
-235.577000
0
LINE
8
Pad
10
3.200000
20
-235.577000
11
0.000000
21
-235.577000
0
LINE
8
Pad
10
3.200000
20
-235.577000
11
0.000000
21
-235.577000
0
LINE
8
Pad
10
0.000000
20
-235.577000
11
0.000000
21
-235.577000
0
LINE
8
Pad
10
0.000000
20
-246.244000
11
0.000000
21
-246.244000
0
LINE
8
Pad
10
0.000000
20
-235.577000
11
0.000000
21
-246.244000
0
LINE
8
Pad
10
0.000000
20
-235.577000
11
0.000000
21
-246.244000
0
LINE
8
Pad
10
0.000000
20
-246.244000
11
10.666700
21
-246.244000
0
LINE
8
Pad
10
10.666700
20
-246.244000
11
10.666700
21
-243.044000
0
LINE
8
Pad
10
10.666700
20
-243.044000
11
21.333300
21
-243.044000
0
LINE
8
Pad
10
21.333300
20
-243.044000
11
21.333300
21
-246.244000
0
LINE
8
Pad
10
21.333300
20
-246.244000
11
32.000000
21
-246.244000
0
LINE
8
Pad
10
32.000000
20
-246.244000
11
32.000000
21
-243.044000
0
LINE
8
Pad
10
32.000000
20
-243.044000
11
42.666600
21
-243.044000
0
LINE
8
Pad
10
42.666600
20
-243.044000
11
42.666600
21
-246.244000
0
LINE
8
Pad
10
42.666600
20
-246.244000
11
53.333300
21
-246.244000
0
LINE
8
Pad
10
53.333300
20
-246.244000
11
53.333300
21
-243.044000
0
LINE
8
Pad
10
53.333300
20
-243.044000
11
63.999900
21
-243.044000
0
LINE
8
Pad
10
63.999900
20
-243.044000
11
63.999900
21
-246.244000
0
LINE
8
Pad
10
63.999900
20
-246.244000
11
74.666600
21
-246.244000
0
LINE
8
Pad
10
74.666600
20
-246.244000
11
74.666600
21
-235.577000
0
LINE
8
Pad
10
74.666600
20
-235.577000
11
71.466600
21
-235.577000
0
LINE
8
Pad
10
71.466600
20
-235.577000
11
71.466600
21
-224.911000
0
LINE
8
Pad
10
71.466600
20
-224.911000
11
74.666600
21
-224.911000
0
LINE
8
Pad
10
74.666600
20
-224.911000
11
74.666600
21
-214.244000
0
LINE
8
Pad
10
74.666600
20
-214.244000
11
71.466600
21
-214.244000
0
LINE
8
Pad
10
71.466600
20
-214.244000
11
71.466600
21
-203.578000
0
LINE
8
Pad
10
71.466600
20
-203.578000
11
74.666600
21
-203.578000
0
LINE
8
Pad
10
74.666600
20
-203.578000
11
74.666600
21
-192.911000
0
LINE
8
Pad
10
74.666600
20
-192.911000
11
71.466600
21
-192.911000
0
LINE
8
Pad
10
71.466600
20
-192.911000
11
71.466600
21
-182.244000
0
LINE
8
Pad
10
71.466600
20
-182.244000
11
74.666600
21
-182.244000
0
LINE
8
Pad
10
74.666600
20
-182.244000
11
74.666600
21
-171.578000
0
LINE
8
Pad
10
74.666600
20
-171.578000
11
63.999900
21
-171.578000
0
LINE
8
Pad
10
63.999900
20
-171.578000
11
63.999900
21
-174.778000
0
LINE
8
Pad
10
63.999900
20
-174.778000
11
53.333300
21
-174.778000
0
LINE
8
Pad
10
53.333300
20
-174.778000
11
53.333300
21
-171.578000
0
LINE
8
Pad
10
53.333300
20
-171.578000
11
42.666600
21
-171.578000
0
LINE
8
Pad
10
42.666600
20
-171.578000
11
42.666600
21
-174.778000
0
LINE
8
Pad
10
42.666600
20
-174.778000
11
32.000000
21
-174.778000
0
LINE
8
Pad
10
32.000000
20
-174.778000
11
32.000000
21
-171.578000
0
LINE
8
Pad
10
32.000000
20
-171.578000
11
21.333300
21
-171.578000
0
LINE
8
Pad
10
21.333300
20
-171.578000
11
21.333300
21
-174.778000
0
LINE
8
Pad
10
21.333300
20
-174.778000
11
10.666700
21
-174.778000
0
LINE
8
Pad
10
10.666700
20
-174.778000
11
10.666700
21
-171.578000
0
LINE
8
Pad
10
10.666700
20
-171.578000
11
0.000000
21
-171.578000
0
LINE
8
Pad
10
0.000000
20
-171.578000
11
0.000000
21
-182.244000
0
LINE
8
Pad
10
0.000000
20
-182.244000
11
3.200000
21
-182.244000
0
LINE
8
Pad
10
3.200000
20
-182.244000
11
3.200000
21
-192.911000
0
LINE
8
Pad
10
3.200000
20
-192.911000
11
0.000000
21
-192.911000
0
LINE
8
Pad
10
0.000000
20
-192.911000
11
0.000000
21
-203.578000
0
LINE
8
Pad
10
0.000000
20
-203.578000
11
3.200000
21
-203.578000
0
LINE
8
Pad
10
3.200000
20
-203.578000
11
3.200000
21
-214.244000
0
LINE
8
Pad
10
3.200000
20
-214.244000
11
0.000000
21
-214.244000
0
LINE
8
Pad
10
0.000000
20
-214.244000
11
0.000000
21
-224.911000
0
LINE
8
Pad
10
0.000000
20
-224.911000
11
3.200000
21
-224.911000
0
LINE
8
Pad
10
3.200000
20
-224.911000
11
3.200000
21
-235.577000
0
LINE
8
Pad
10
3.200000
20
-235.577000
11
0.000000
21
-235.577000
0
LINE
8
Pad
10
0.000000
20
-235.577000
11
0.000000
21
-246.244000
0
LINE
8
Pad
10
0.000000
20
-246.244000
11
10.666700
21
-246.244000
0
LINE
8
Pad
10
10.666700
20
-246.244000
11
10.666700
21
-243.044000
0
LINE
8
Pad
10
10.666700
20
-243.044000
11
21.333300
21
-243.044000
0
LINE
8
Pad
10
21.333300
20
-243.044000
11
21.333300
21
-246.244000
0
LINE
8
Pad
10
21.333300
20
-246.244000
11
32.000000
21
-246.244000
0
LINE
8
Pad
10
32.000000
20
-246.244000
11
32.000000
21
-243.044000
0
LINE
8
Pad
10
32.000000
20
-243.044000
11
42.666600
21
-243.044000
0
LINE
8
Pad
10
42.666600
20
-243.044000
11
42.666600
21
-246.244000
0
LINE
8
Pad
10
42.666600
20
-246.244000
11
53.333300
21
-246.244000
0
LINE
8
Pad
10
53.333300
20
-246.244000
11
53.333300
21
-243.044000
0
LINE
8
Pad
10
53.333300
20
-243.044000
11
63.999900
21
-243.044000
0
LINE
8
Pad
10
63.999900
20
-243.044000
11
63.999900
21
-246.244000
0
LINE
8
Pad
10
63.999900
20
-246.244000
11
74.666600
21
-246.244000
0
LINE
8
Pad
10
74.666600
20
-246.244000
11
74.666600
21
-235.577000
0
LINE
8
Pad
10
74.666600
20
-235.577000
11
71.466600
21
-235.577000
0
LINE
8
Pad
10
71.466600
20
-235.577000
11
71.466600
21
-224.911000
0
LINE
8
Pad
10
71.466600
20
-224.911000
11
74.666600
21
-224.911000
0
LINE
8
Pad
10
74.666600
20
-224.911000
11
74.666600
21
-214.244000
0
LINE
8
Pad
10
74.666600
20
-214.244000
11
71.466600
21
-214.244000
0
LINE
8
Pad
10
71.466600
20
-214.244000
11
71.466600
21
-203.578000
0
LINE
8
Pad
10
71.466600
20
-203.578000
11
74.666600
21
-203.578000
0
LINE
8
Pad
10
74.666600
20
-203.578000
11
74.666600
21
-192.911000
0
LINE
8
Pad
10
74.666600
20
-192.911000
11
71.466600
21
-192.911000
0
LINE
8
Pad
10
71.466600
20
-192.911000
11
71.466600
21
-182.244000
0
LINE
8
Pad
10
71.466600
20
-182.244000
11
74.666600
21
-182.244000
0
LINE
8
Pad
10
74.666600
20
-182.244000
11
74.666600
21
-171.578000
0
LINE
8
Pad
10
74.666600
20
-171.578000
11
63.999900
21
-171.578000
0
LINE
8
Pad
10
63.999900
20
-171.578000
11
63.999900
21
-174.778000
0
LINE
8
Pad
10
63.999900
20
-174.778000
11
53.333300
21
-174.778000
0
LINE
8
Pad
10
53.333300
20
-174.778000
11
53.333300
21
-171.578000
0
LINE
8
Pad
10
53.333300
20
-171.578000
11
42.666600
21
-171.578000
0
LINE
8
Pad
10
42.666600
20
-171.578000
11
42.666600
21
-174.778000
0
LINE
8
Pad
10
42.666600
20
-174.778000
11
32.000000
21
-174.778000
0
LINE
8
Pad
10
32.000000
20
-174.778000
11
32.000000
21
-171.578000
0
LINE
8
Pad
10
32.000000
20
-171.578000
11
21.333300
21
-171.578000
0
LINE
8
Pad
10
21.333300
20
-171.578000
11
21.333300
21
-174.778000
0
LINE
8
Pad
10
21.333300
20
-174.778000
11
10.666700
21
-174.778000
0
LINE
8
Pad
10
10.666700
20
-174.778000
11
10.666700
21
-171.578000
0
LINE
8
Pad
10
10.666700
20
-171.578000
11
0.000000
21
-171.578000
0
LINE
8
Pad
10
0.000000
20
-171.578000
11
0.000000
21
-182.244000
0
LINE
8
Pad
10
0.000000
20
-182.244000
11
3.200000
21
-182.244000
0
LINE
8
Pad
10
3.200000
20
-182.244000
11
3.200000
21
-192.911000
0
LINE
8
Pad
10
3.200000
20
-192.911000
11
0.000000
21
-192.911000
0
LINE
8
Pad
10
0.000000
20
-192.911000
11
0.000000
21
-203.578000
0
LINE
8
Pad
10
0.000000
20
-203.578000
11
3.200000
21
-203.578000
0
LINE
8
Pad
10
3.200000
20
-203.578000
11
3.200000
21
-214.244000
0
LINE
8
Pad
10
3.200000
20
-214.244000
11
0.000000
21
-214.244000
0
LINE
8
Pad
10
0.000000
20
-214.244000
11
0.000000
21
-224.911000
0
LINE
8
Pad
10
0.000000
20
-224.911000
11
3.200000
21
-224.911000
0
LINE
8
Pad
10
3.200000
20
-224.911000
11
3.200000
21
-235.577000
0
LINE
8
Pad
10
3.200000
20
-235.577000
11
0.000000
21
-235.577000
0
LINE
8
Pad
10
0.000000
20
-235.577000
11
0.000000
21
-246.244000
0
LINE
8
Pad
10
0.000000
20
-246.244000
11
0.000000
21
-246.244000
0
LINE
8
Pad
10
0.000000
20
-224.911000
11
0.000000
21
-224.911000
0
LINE
8
Pad
10
0.000000
20
-246.244000
11
0.000000
21
-224.911000
0
LINE
8
Pad
10
0.000000
20
-246.244000
11
0.000000
21
-224.911000
0
LINE
8
Pad
10
0.000000
20
-224.911000
11
0.000000
21
-224.911000
0
LINE
8
Pad
10
68.266600
20
-224.911000
11
68.266600
21
-224.911000
0
LINE
8
Pad
10
0.000000
20
-224.911000
11
68.266600
21
-224.911000
0
LINE
8
Pad
10
0.000000
20
-224.911000
11
68.266600
21
-224.911000
0
LINE
8
Pad
10
68.266600
20
-224.911000
11
68.266600
21
-224.911000
0
LINE
8
Pad
10
68.266600
20
-246.244000
11
68.266600
21
-246.244000
0
LINE
8
Pad
10
68.266600
20
-224.911000
11
68.266600
21
-246.244000
0
LINE
8
Pad
10
68.266600
20
-224.911000
11
68.266600
21
-246.244000
0
LINE
8
Pad
10
68.266600
20
-249.444000
11
68.266600
21
-249.444000
0
LINE
8
Pad
10
68.266600
20
-246.244000
11
68.266600
21
-246.244000
0
LINE
8
Pad
10
68.266600
20
-249.444000
11
68.266600
21
-246.244000
0
LINE
8
Pad
10
68.266600
20
-249.444000
11
68.266600
21
-246.244000
0
LINE
8
Pad
10
50.133300
20
-249.444000
11
50.133300
21
-249.444000
0
LINE
8
Pad
10
68.266600
20
-249.444000
11
68.266600
21
-249.444000
0
LINE
8
Pad
10
50.133300
20
-249.444000
11
68.266600
21
-249.444000
0
LINE
8
Pad
10
50.133300
20
-249.444000
11
68.266600
21
-249.444000
0
LINE
8
Pad
10
50.133300
20
-246.244000
11
50.133300
21
-246.244000
0
LINE
8
Pad
10
50.133300
20
-249.444000
11
50.133300
21
-249.444000
0
LINE
8
Pad
10
50.133300
20
-246.244000
11
50.133300
21
-249.444000
0
LINE
8
Pad
10
50.133300
20
-246.244000
11
50.133300
21
-249.444000
0
LINE
8
Pad
10
18.133300
20
-246.244000
11
18.133300
21
-246.244000
0
LINE
8
Pad
10
50.133300
20
-246.244000
11
50.133300
21
-246.244000
0
LINE
8
Pad
10
18.133300
20
-246.244000
11
50.133300
21
-246.244000
0
LINE
8
Pad
10
18.133300
20
-246.244000
11
50.133300
21
-246.244000
0
LINE
8
Pad
10
18.133300
20
-249.444000
11
18.133300
21
-249.444000
0
LINE
8
Pad
10
18.133300
20
-246.244000
11
18.133300
21
-246.244000
0
LINE
8
Pad
10
18.133300
20
-249.444000
11
18.133300
21
-246.244000
0
LINE
8
Pad
10
18.133300
20
-249.444000
11
18.133300
21
-246.244000
0
LINE
8
Pad
10
0.000000
20
-249.444000
11
0.000000
21
-249.444000
0
LINE
8
Pad
10
18.133300
20
-249.444000
11
18.133300
21
-249.444000
0
LINE
8
Pad
10
0.000000
20
-249.444000
11
18.133300
21
-249.444000
0
LINE
8
Pad
10
0.000000
20
-249.444000
11
18.133300
21
-249.444000
0
LINE
8
Pad
10
0.000000
20
-246.244000
11
0.000000
21
-246.244000
0
LINE
8
Pad
10
0.000000
20
-249.444000
11
0.000000
21
-249.444000
0
LINE
8
Pad
10
0.000000
20
-246.244000
11
0.000000
21
-249.444000
0
LINE
8
Pad
10
0.000000
20
-246.244000
11
0.000000
21
-249.444000
0
LINE
8
Pad
10
0.000000
20
-246.244000
11
0.000000
21
-224.911000
0
LINE
8
Pad
10
0.000000
20
-224.911000
11
68.266600
21
-224.911000
0
LINE
8
Pad
10
68.266600
20
-224.911000
11
68.266600
21
-246.244000
0
LINE
8
Pad
10
68.266600
20
-249.444000
11
68.266600
21
-246.244000
0
LINE
8
Pad
10
50.133300
20
-249.444000
11
68.266600
21
-249.444000
0
LINE
8
Pad
10
50.133300
20
-246.244000
11
50.133300
21
-249.444000
0
LINE
8
Pad
10
18.133300
20
-246.244000
11
50.133300
21
-246.244000
0
LINE
8
Pad
10
18.133300
20
-249.444000
11
18.133300
21
-246.244000
0
LINE
8
Pad
10
0.000000
20
-249.444000
11
18.133300
21
-249.444000
0
LINE
8
Pad
10
0.000000
20
-246.244000
11
0.000000
21
-249.444000
0
LINE
8
Pad
10
0.000000
20
-246.244000
11
0.000000
21
-224.911000
0
LINE
8
Pad
10
0.000000
20
-224.911000
11
68.266600
21
-224.911000
0
LINE
8
Pad
10
68.266600
20
-224.911000
11
68.266600
21
-246.244000
0
LINE
8
Pad
10
68.266600
20
-249.444000
11
68.266600
21
-246.244000
0
LINE
8
Pad
10
50.133300
20
-249.444000
11
68.266600
21
-249.444000
0
LINE
8
Pad
10
50.133300
20
-246.244000
11
50.133300
21
-249.444000
0
LINE
8
Pad
10
18.133300
20
-246.244000
11
50.133300
21
-246.244000
0
LINE
8
Pad
10
18.133300
20
-249.444000
11
18.133300
21
-246.244000
0
LINE
8
Pad
10
0.000000
20
-249.444000
11
18.133300
21
-249.444000
0
LINE
8
Pad
10
0.000000
20
-246.244000
11
0.000000
21
-249.444000
0
LINE
8
Shape2DView
10
13.866700
20
-243.044000
11
13.866700
21
-246.244000
0
LINE
8
Shape2DView
10
3.200000
20
-243.044000
11
13.866700
21
-243.044000
0
LINE
8
Shape2DView
10
3.200000
20
-243.044000
11
3.200000
21
-235.577000
0
LINE
8
Shape2DView
10
3.200000
20
-235.577000
11
0.000000
21
-235.577000
0
LINE
8
Shape2DView
10
0.000000
20
-235.577000
11
0.000000
21
-224.911000
0
LINE
8
Shape2DView
10
0.000000
20
-224.911000
11
3.200000
21
-224.911000
0
LINE
8
Shape2DView
10
3.200000
20
-224.911000
11
3.200000
21
-214.244000
0
LINE
8
Shape2DView
10
3.200000
20
-214.244000
11
-5.333330
21
-214.244000
0
LINE
8
Shape2DView
10
-5.333330
20
-214.244000
11
-5.333330
21
-203.578000
0
LINE
8
Shape2DView
10
-5.333330
20
-203.578000
11
3.200000
21
-203.578000
0
LINE
8
Shape2DView
10
3.200000
20
-203.578000
11
3.200000
21
-192.911000
0
LINE
8
Shape2DView
10
3.200000
20
-192.911000
11
0.000000
21
-192.911000
0
LINE
8
Shape2DView
10
0.000000
20
-192.911000
11
0.000000
21
-182.244000
0
LINE
8
Shape2DView
10
0.000000
20
-182.244000
11
3.200000
21
-182.244000
0
LINE
8
Shape2DView
10
3.200000
20
-182.244000
11
3.200000
21
-174.778000
0
LINE
8
Shape2DView
10
13.866700
20
-174.778000
11
3.200000
21
-174.778000
0
LINE
8
Shape2DView
10
13.866700
20
-171.578000
11
13.866700
21
-174.778000
0
LINE
8
Shape2DView
10
13.866700
20
-171.578000
11
21.333300
21
-171.578000
0
LINE
8
Shape2DView
10
21.333300
20
-174.778000
11
21.333300
21
-171.578000
0
LINE
8
Shape2DView
10
18.133300
20
-174.778000
11
21.333300
21
-174.778000
0
LINE
8
Shape2DView
10
18.133300
20
-192.911000
11
18.133300
21
-174.778000
0
LINE
8
Shape2DView
10
21.333300
20
-192.911000
11
18.133300
21
-192.911000
0
LINE
8
Shape2DView
10
21.333300
20
-203.578000
11
21.333300
21
-192.911000
0
LINE
8
Shape2DView
10
16.000000
20
-203.578000
11
21.333300
21
-203.578000
0
LINE
8
Shape2DView
10
16.000000
20
-214.244000
11
16.000000
21
-203.578000
0
LINE
8
Shape2DView
10
21.333300
20
-214.244000
11
16.000000
21
-214.244000
0
LINE
8
Shape2DView
10
21.333300
20
-224.911000
11
21.333300
21
-214.244000
0
LINE
8
Shape2DView
10
18.133300
20
-224.911000
11
21.333300
21
-224.911000
0
LINE
8
Shape2DView
10
18.133300
20
-243.044000
11
18.133300
21
-224.911000
0
LINE
8
Shape2DView
10
21.333300
20
-243.044000
11
18.133300
21
-243.044000
0
LINE
8
Shape2DView
10
21.333300
20
-246.244000
11
21.333300
21
-243.044000
0
LINE
8
Shape2DView
10
13.866700
20
-246.244000
11
21.333300
21
-246.244000
0
LINE
8
Shape2DView
10
3.200000
20
-235.577000
11
0.000000
21
-235.577000
0
LINE
8
Shape2DView
10
0.000000
20
-235.577000
11
0.000000
21
-224.911000
0
LINE
8
Shape2DView
10
0.000000
20
-224.911000
11
3.200000
21
-224.911000
0
LINE
8
Shape2DView
10
3.200000
20
-224.911000
11
3.200000
21
-214.244000
0
LINE
8
Shape2DView
10
3.200000
20
-214.244000
11
0.000000
21
-214.244000
0
LINE
8
Shape2DView
10
0.000000
20
-214.244000
11
0.000000
21
-203.578000
0
LINE
8
Shape2DView
10
0.000000
20
-203.578000
11
3.200000
21
-203.578000
0
LINE
8
Shape2DView
10
3.200000
20
-203.578000
11
3.200000
21
-192.911000
0
LINE
8
Shape2DView
10
3.200000
20
-192.911000
11
0.000000
21
-192.911000
0
LINE
8
Shape2DView
10
0.000000
20
-192.911000
11
0.000000
21
-182.244000
0
LINE
8
Shape2DView
10
0.000000
20
-182.244000
11
3.200000
21
-182.244000
0
LINE
8
Shape2DView
10
3.200000
20
-182.244000
11
3.200000
21
-174.778000
0
LINE
8
Shape2DView
10
3.200000
20
-174.778000
11
13.866700
21
-174.778000
0
LINE
8
Shape2DView
10
13.866700
20
-174.778000
11
13.866700
21
-171.578000
0
LINE
8
Shape2DView
10
13.866700
20
-171.578000
11
21.333300
21
-171.578000
0
LINE
8
Shape2DView
10
21.333300
20
-171.578000
11
21.333300
21
-246.244000
0
LINE
8
Shape2DView
10
21.333300
20
-246.244000
11
13.866700
21
-246.244000
0
LINE
8
Shape2DView
10
13.866700
20
-246.244000
11
13.866700
21
-243.044000
0
LINE
8
Shape2DView
10
13.866700
20
-243.044000
11
3.200000
21
-243.044000
0
LINE
8
Shape2DView
10
3.200000
20
-243.044000
11
3.200000
21
-235.577000
0
LINE
8
Shape2DView
10
21.333300
20
-249.444000
11
13.866700
21
-249.444000
0
LINE
8
Shape2DView
10
13.866700
20
-249.444000
11
13.866700
21
-246.244000
0
LINE
8
Shape2DView
10
13.866700
20
-246.244000
11
3.200000
21
-246.244000
0
LINE
8
Shape2DView
10
3.200000
20
-246.244000
11
3.200000
21
-256.911000
0
LINE
8
Shape2DView
10
3.200000
20
-256.911000
11
-3.200000
21
-256.911000
0
LINE
8
Shape2DView
10
-3.200000
20
-256.911000
11
-3.200000
21
-267.577000
0
LINE
8
Shape2DView
10
-3.200000
20
-267.577000
11
3.200000
21
-267.577000
0
LINE
8
Shape2DView
10
3.200000
20
-267.577000
11
3.200000
21
-278.244000
0
LINE
8
Shape2DView
10
3.200000
20
-278.244000
11
0.000000
21
-278.244000
0
LINE
8
Shape2DView
10
0.000000
20
-278.244000
11
0.000000
21
-288.911000
0
LINE
8
Shape2DView
10
0.000000
20
-288.911000
11
3.200000
21
-288.911000
0
LINE
8
Shape2DView
10
3.200000
20
-288.911000
11
3.200000
21
-299.577000
0
LINE
8
Shape2DView
10
3.200000
20
-299.577000
11
-3.200000
21
-299.577000
0
LINE
8
Shape2DView
10
-3.200000
20
-299.577000
11
-3.200000
21
-310.244000
0
LINE
8
Shape2DView
10
-3.200000
20
-310.244000
11
3.200000
21
-310.244000
0
LINE
8
Shape2DView
10
3.200000
20
-310.244000
11
3.200000
21
-320.911000
0
LINE
8
Shape2DView
10
3.200000
20
-320.911000
11
13.866700
21
-320.911000
0
LINE
8
Shape2DView
10
13.866700
20
-320.911000
11
13.866700
21
-317.711000
0
LINE
8
Shape2DView
10
13.866700
20
-317.711000
11
21.333300
21
-317.711000
0
LINE
8
Shape2DView
10
21.333300
20
-310.244000
11
21.333300
21
-317.711000
0
LINE
8
Shape2DView
10
18.133300
20
-310.244000
11
21.333300
21
-310.244000
0
LINE
8
Shape2DView
10
18.133300
20
-299.577000
11
18.133300
21
-310.244000
0
LINE
8
Shape2DView
10
21.333300
20
-299.577000
11
18.133300
21
-299.577000
0
LINE
8
Shape2DView
10
21.333300
20
-267.577000
11
21.333300
21
-299.577000
0
LINE
8
Shape2DView
10
18.133300
20
-267.577000
11
21.333300
21
-267.577000
0
LINE
8
Shape2DView
10
18.133300
20
-256.911000
11
18.133300
21
-267.577000
0
LINE
8
Shape2DView
10
21.333300
20
-256.911000
11
18.133300
21
-256.911000
0
LINE
8
Shape2DView
10
21.333300
20
-249.444000
11
21.333300
21
-256.911000
0
LINE
8
Pad
10
0.000000
20
-246.244000
11
0.000000
21
-246.244000
0
LINE
8
Pad
10
10.666700
20
-246.244000
11
10.666700
21
-246.244000
0
LINE
8
Pad
10
0.000000
20
-246.244000
11
10.666700
21
-246.244000
0
LINE
8
Pad
10
0.000000
20
-246.244000
11
10.666700
21
-246.244000
0
LINE
8
Pad
10
10.666700
20
-246.244000
11
10.666700
21
-246.244000
0
LINE
8
Pad
10
10.666700
20
-243.044000
11
10.666700
21
-243.044000
0
LINE
8
Pad
10
10.666700
20
-246.244000
11
10.666700
21
-243.044000
0
LINE
8
Pad
10
10.666700
20
-246.244000
11
10.666700
21
-243.044000
0
LINE
8
Pad
10
10.666700
20
-243.044000
11
10.666700
21
-243.044000
0
LINE
8
Pad
10
21.333300
20
-243.044000
11
21.333300
21
-243.044000
0
LINE
8
Pad
10
10.666700
20
-243.044000
11
21.333300
21
-243.044000
0
LINE
8
Pad
10
10.666700
20
-243.044000
11
21.333300
21
-243.044000
0
LINE
8
Pad
10
21.333300
20
-243.044000
11
21.333300
21
-243.044000
0
LINE
8
Pad
10
21.333300
20
-246.244000
11
21.333300
21
-246.244000
0
LINE
8
Pad
10
21.333300
20
-243.044000
11
21.333300
21
-246.244000
0
LINE
8
Pad
10
21.333300
20
-243.044000
11
21.333300
21
-246.244000
0
LINE
8
Pad
10
21.333300
20
-246.244000
11
21.333300
21
-246.244000
0
LINE
8
Pad
10
32.000000
20
-246.244000
11
32.000000
21
-246.244000
0
LINE
8
Pad
10
21.333300
20
-246.244000
11
32.000000
21
-246.244000
0
LINE
8
Pad
10
21.333300
20
-246.244000
11
32.000000
21
-246.244000
0
LINE
8
Pad
10
32.000000
20
-246.244000
11
32.000000
21
-246.244000
0
LINE
8
Pad
10
32.000000
20
-243.044000
11
32.000000
21
-243.044000
0
LINE
8
Pad
10
32.000000
20
-246.244000
11
32.000000
21
-243.044000
0
LINE
8
Pad
10
32.000000
20
-246.244000
11
32.000000
21
-243.044000
0
LINE
8
Pad
10
32.000000
20
-243.044000
11
32.000000
21
-243.044000
0
LINE
8
Pad
10
42.666600
20
-243.044000
11
42.666600
21
-243.044000
0
LINE
8
Pad
10
32.000000
20
-243.044000
11
42.666600
21
-243.044000
0
LINE
8
Pad
10
32.000000
20
-243.044000
11
42.666600
21
-243.044000
0
LINE
8
Pad
10
42.666600
20
-243.044000
11
42.666600
21
-243.044000
0
LINE
8
Pad
10
42.666600
20
-246.244000
11
42.666600
21
-246.244000
0
LINE
8
Pad
10
42.666600
20
-243.044000
11
42.666600
21
-246.244000
0
LINE
8
Pad
10
42.666600
20
-243.044000
11
42.666600
21
-246.244000
0
LINE
8
Pad
10
42.666600
20
-246.244000
11
42.666600
21
-246.244000
0
LINE
8
Pad
10
53.333300
20
-246.244000
11
53.333300
21
-246.244000
0
LINE
8
Pad
10
42.666600
20
-246.244000
11
53.333300
21
-246.244000
0
LINE
8
Pad
10
42.666600
20
-246.244000
11
53.333300
21
-246.244000
0
LINE
8
Pad
10
53.333300
20
-246.244000
11
53.333300
21
-246.244000
0
LINE
8
Pad
10
53.333300
20
-243.044000
11
53.333300
21
-243.044000
0
LINE
8
Pad
10
53.333300
20
-246.244000
11
53.333300
21
-243.044000
0
LINE
8
Pad
10
53.333300
20
-246.244000
11
53.333300
21
-243.044000
0
LINE
8
Pad
10
53.333300
20
-243.044000
11
53.333300
21
-243.044000
0
LINE
8
Pad
10
63.999900
20
-243.044000
11
63.999900
21
-243.044000
0
LINE
8
Pad
10
53.333300
20
-243.044000
11
63.999900
21
-243.044000
0
LINE
8
Pad
10
53.333300
20
-243.044000
11
63.999900
21
-243.044000
0
LINE
8
Pad
10
63.999900
20
-243.044000
11
63.999900
21
-243.044000
0
LINE
8
Pad
10
63.999900
20
-246.244000
11
63.999900
21
-246.244000
0
LINE
8
Pad
10
63.999900
20
-243.044000
11
63.999900
21
-246.244000
0
LINE
8
Pad
10
63.999900
20
-243.044000
11
63.999900
21
-246.244000
0
LINE
8
Pad
10
63.999900
20
-246.244000
11
63.999900
21
-246.244000
0
LINE
8
Pad
10
74.666600
20
-246.244000
11
74.666600
21
-246.244000
0
LINE
8
Pad
10
63.999900
20
-246.244000
11
74.666600
21
-246.244000
0
LINE
8
Pad
10
63.999900
20
-246.244000
11
74.666600
21
-246.244000
0
LINE
8
Pad
10
74.666600
20
-246.244000
11
74.666600
21
-246.244000
0
LINE
8
Pad
10
74.666600
20
-235.577000
11
74.666600
21
-235.577000
0
LINE
8
Pad
10
74.666600
20
-246.244000
11
74.666600
21
-235.577000
0
LINE
8
Pad
10
74.666600
20
-246.244000
11
74.666600
21
-235.577000
0
LINE
8
Pad
10
74.666600
20
-235.577000
11
74.666600
21
-235.577000
0
LINE
8
Pad
10
71.466600
20
-235.577000
11
71.466600
21
-235.577000
0
LINE
8
Pad
10
74.666600
20
-235.577000
11
71.466600
21
-235.577000
0
LINE
8
Pad
10
74.666600
20
-235.577000
11
71.466600
21
-235.577000
0
LINE
8
Pad
10
71.466600
20
-235.577000
11
71.466600
21
-235.577000
0
LINE
8
Pad
10
71.466600
20
-224.911000
11
71.466600
21
-224.911000
0
LINE
8
Pad
10
71.466600
20
-235.577000
11
71.466600
21
-224.911000
0
LINE
8
Pad
10
71.466600
20
-235.577000
11
71.466600
21
-224.911000
0
LINE
8
Pad
10
71.466600
20
-224.911000
11
71.466600
21
-224.911000
0
LINE
8
Pad
10
74.666600
20
-224.911000
11
74.666600
21
-224.911000
0
LINE
8
Pad
10
71.466600
20
-224.911000
11
74.666600
21
-224.911000
0
LINE
8
Pad
10
71.466600
20
-224.911000
11
74.666600
21
-224.911000
0
LINE
8
Pad
10
74.666600
20
-224.911000
11
74.666600
21
-224.911000
0
LINE
8
Pad
10
74.666600
20
-214.244000
11
74.666600
21
-214.244000
0
LINE
8
Pad
10
74.666600
20
-224.911000
11
74.666600
21
-214.244000
0
LINE
8
Pad
10
74.666600
20
-224.911000
11
74.666600
21
-214.244000
0
LINE
8
Pad
10
74.666600
20
-214.244000
11
74.666600
21
-214.244000
0
LINE
8
Pad
10
71.466600
20
-214.244000
11
71.466600
21
-214.244000
0
LINE
8
Pad
10
74.666600
20
-214.244000
11
71.466600
21
-214.244000
0
LINE
8
Pad
10
74.666600
20
-214.244000
11
71.466600
21
-214.244000
0
LINE
8
Pad
10
71.466600
20
-214.244000
11
71.466600
21
-214.244000
0
LINE
8
Pad
10
71.466600
20
-203.578000
11
71.466600
21
-203.578000
0
LINE
8
Pad
10
71.466600
20
-214.244000
11
71.466600
21
-203.578000
0
LINE
8
Pad
10
71.466600
20
-214.244000
11
71.466600
21
-203.578000
0
LINE
8
Pad
10
71.466600
20
-203.578000
11
71.466600
21
-203.578000
0
LINE
8
Pad
10
74.666600
20
-203.578000
11
74.666600
21
-203.578000
0
LINE
8
Pad
10
71.466600
20
-203.578000
11
74.666600
21
-203.578000
0
LINE
8
Pad
10
71.466600
20
-203.578000
11
74.666600
21
-203.578000
0
LINE
8
Pad
10
74.666600
20
-203.578000
11
74.666600
21
-203.578000
0
LINE
8
Pad
10
74.666600
20
-192.911000
11
74.666600
21
-192.911000
0
LINE
8
Pad
10
74.666600
20
-203.578000
11
74.666600
21
-192.911000
0
LINE
8
Pad
10
74.666600
20
-203.578000
11
74.666600
21
-192.911000
0
LINE
8
Pad
10
74.666600
20
-192.911000
11
74.666600
21
-192.911000
0
LINE
8
Pad
10
71.466600
20
-192.911000
11
71.466600
21
-192.911000
0
LINE
8
Pad
10
74.666600
20
-192.911000
11
71.466600
21
-192.911000
0
LINE
8
Pad
10
74.666600
20
-192.911000
11
71.466600
21
-192.911000
0
LINE
8
Pad
10
71.466600
20
-192.911000
11
71.466600
21
-192.911000
0
LINE
8
Pad
10
71.466600
20
-182.244000
11
71.466600
21
-182.244000
0
LINE
8
Pad
10
71.466600
20
-192.911000
11
71.466600
21
-182.244000
0
LINE
8
Pad
10
71.466600
20
-192.911000
11
71.466600
21
-182.244000
0
LINE
8
Pad
10
71.466600
20
-182.244000
11
71.466600
21
-182.244000
0
LINE
8
Pad
10
74.666600
20
-182.244000
11
74.666600
21
-182.244000
0
LINE
8
Pad
10
71.466600
20
-182.244000
11
74.666600
21
-182.244000
0
LINE
8
Pad
10
71.466600
20
-182.244000
11
74.666600
21
-182.244000
0
LINE
8
Pad
10
74.666600
20
-182.244000
11
74.666600
21
-182.244000
0
LINE
8
Pad
10
74.666600
20
-171.578000
11
74.666600
21
-171.578000
0
LINE
8
Pad
10
74.666600
20
-182.244000
11
74.666600
21
-171.578000
0
LINE
8
Pad
10
74.666600
20
-182.244000
11
74.666600
21
-171.578000
0
LINE
8
Pad
10
74.666600
20
-171.578000
11
74.666600
21
-171.578000
0
LINE
8
Pad
10
63.999900
20
-171.578000
11
63.999900
21
-171.578000
0
LINE
8
Pad
10
74.666600
20
-171.578000
11
63.999900
21
-171.578000
0
LINE
8
Pad
10
74.666600
20
-171.578000
11
63.999900
21
-171.578000
0
LINE
8
Pad
10
63.999900
20
-171.578000
11
63.999900
21
-171.578000
0
LINE
8
Pad
10
63.999900
20
-174.778000
11
63.999900
21
-174.778000
0
LINE
8
Pad
10
63.999900
20
-171.578000
11
63.999900
21
-174.778000
0
LINE
8
Pad
10
63.999900
20
-171.578000
11
63.999900
21
-174.778000
0
LINE
8
Pad
10
63.999900
20
-174.778000
11
63.999900
21
-174.778000
0
LINE
8
Pad
10
53.333300
20
-174.778000
11
53.333300
21
-174.778000
0
LINE
8
Pad
10
63.999900
20
-174.778000
11
53.333300
21
-174.778000
0
LINE
8
Pad
10
63.999900
20
-174.778000
11
53.333300
21
-174.778000
0
LINE
8
Pad
10
53.333300
20
-174.778000
11
53.333300
21
-174.778000
0
LINE
8
Pad
10
53.333300
20
-171.578000
11
53.333300
21
-171.578000
0
LINE
8
Pad
10
53.333300
20
-174.778000
11
53.333300
21
-171.578000
0
LINE
8
Pad
10
53.333300
20
-174.778000
11
53.333300
21
-171.578000
0
LINE
8
Pad
10
53.333300
20
-171.578000
11
53.333300
21
-171.578000
0
LINE
8
Pad
10
42.666600
20
-171.578000
11
42.666600
21
-171.578000
0
LINE
8
Pad
10
53.333300
20
-171.578000
11
42.666600
21
-171.578000
0
LINE
8
Pad
10
53.333300
20
-171.578000
11
42.666600
21
-171.578000
0
LINE
8
Pad
10
42.666600
20
-171.578000
11
42.666600
21
-171.578000
0
LINE
8
Pad
10
42.666600
20
-174.778000
11
42.666600
21
-174.778000
0
LINE
8
Pad
10
42.666600
20
-171.578000
11
42.666600
21
-174.778000
0
LINE
8
Pad
10
42.666600
20
-171.578000
11
42.666600
21
-174.778000
0
LINE
8
Pad
10
42.666600
20
-174.778000
11
42.666600
21
-174.778000
0
LINE
8
Pad
10
32.000000
20
-174.778000
11
32.000000
21
-174.778000
0
LINE
8
Pad
10
42.666600
20
-174.778000
11
32.000000
21
-174.778000
0
LINE
8
Pad
10
42.666600
20
-174.778000
11
32.000000
21
-174.778000
0
LINE
8
Pad
10
32.000000
20
-174.778000
11
32.000000
21
-174.778000
0
LINE
8
Pad
10
32.000000
20
-171.578000
11
32.000000
21
-171.578000
0
LINE
8
Pad
10
32.000000
20
-174.778000
11
32.000000
21
-171.578000
0
LINE
8
Pad
10
32.000000
20
-174.778000
11
32.000000
21
-171.578000
0
LINE
8
Pad
10
32.000000
20
-171.578000
11
32.000000
21
-171.578000
0
LINE
8
Pad
10
21.333300
20
-171.578000
11
21.333300
21
-171.578000
0
LINE
8
Pad
10
32.000000
20
-171.578000
11
21.333300
21
-171.578000
0
LINE
8
Pad
10
32.000000
20
-171.578000
11
21.333300
21
-171.578000
0
LINE
8
Pad
10
21.333300
20
-171.578000
11
21.333300
21
-171.578000
0
LINE
8
Pad
10
21.333300
20
-174.778000
11
21.333300
21
-174.778000
0
LINE
8
Pad
10
21.333300
20
-171.578000
11
21.333300
21
-174.778000
0
LINE
8
Pad
10
21.333300
20
-171.578000
11
21.333300
21
-174.778000
0
LINE
8
Pad
10
21.333300
20
-174.778000
11
21.333300
21
-174.778000
0
LINE
8
Pad
10
10.666700
20
-174.778000
11
10.666700
21
-174.778000
0
LINE
8
Pad
10
21.333300
20
-174.778000
11
10.666700
21
-174.778000
0
LINE
8
Pad
10
21.333300
20
-174.778000
11
10.666700
21
-174.778000
0
LINE
8
Pad
10
10.666700
20
-174.778000
11
10.666700
21
-174.778000
0
LINE
8
Pad
10
10.666700
20
-171.578000
11
10.666700
21
-171.578000
0
LINE
8
Pad
10
10.666700
20
-174.778000
11
10.666700
21
-171.578000
0
LINE
8
Pad
10
10.666700
20
-174.778000
11
10.666700
21
-171.578000
0
LINE
8
Pad
10
10.666700
20
-171.578000
11
10.666700
21
-171.578000
0
LINE
8
Pad
10
0.000000
20
-171.578000
11
0.000000
21
-171.578000
0
LINE
8
Pad
10
10.666700
20
-171.578000
11
0.000000
21
-171.578000
0
LINE
8
Pad
10
10.666700
20
-171.578000
11
0.000000
21
-171.578000
0
LINE
8
Pad
10
0.000000
20
-171.578000
11
0.000000
21
-171.578000
0
LINE
8
Pad
10
0.000000
20
-182.244000
11
0.000000
21
-182.244000
0
LINE
8
Pad
10
0.000000
20
-171.578000
11
0.000000
21
-182.244000
0
LINE
8
Pad
10
0.000000
20
-171.578000
11
0.000000
21
-182.244000
0
LINE
8
Pad
10
0.000000
20
-182.244000
11
0.000000
21
-182.244000
0
LINE
8
Pad
10
3.200000
20
-182.244000
11
3.200000
21
-182.244000
0
LINE
8
Pad
10
0.000000
20
-182.244000
11
3.200000
21
-182.244000
0
LINE
8
Pad
10
0.000000
20
-182.244000
11
3.200000
21
-182.244000
0
LINE
8
Pad
10
3.200000
20
-182.244000
11
3.200000
21
-182.244000
0
LINE
8
Pad
10
3.200000
20
-192.911000
11
3.200000
21
-192.911000
0
LINE
8
Pad
10
3.200000
20
-182.244000
11
3.200000
21
-192.911000
0
LINE
8
Pad
10
3.200000
20
-182.244000
11
3.200000
21
-192.911000
0
LINE
8
Pad
10
3.200000
20
-192.911000
11
3.200000
21
-192.911000
0
LINE
8
Pad
10
0.000000
20
-192.911000
11
0.000000
21
-192.911000
0
LINE
8
Pad
10
3.200000
20
-192.911000
11
0.000000
21
-192.911000
0
LINE
8
Pad
10
3.200000
20
-192.911000
11
0.000000
21
-192.911000
0
LINE
8
Pad
10
0.000000
20
-192.911000
11
0.000000
21
-192.911000
0
LINE
8
Pad
10
0.000000
20
-203.578000
11
0.000000
21
-203.578000
0
LINE
8
Pad
10
0.000000
20
-192.911000
11
0.000000
21
-203.578000
0
LINE
8
Pad
10
0.000000
20
-192.911000
11
0.000000
21
-203.578000
0
LINE
8
Pad
10
0.000000
20
-203.578000
11
0.000000
21
-203.578000
0
LINE
8
Pad
10
3.200000
20
-203.578000
11
3.200000
21
-203.578000
0
LINE
8
Pad
10
0.000000
20
-203.578000
11
3.200000
21
-203.578000
0
LINE
8
Pad
10
0.000000
20
-203.578000
11
3.200000
21
-203.578000
0
LINE
8
Pad
10
3.200000
20
-203.578000
11
3.200000
21
-203.578000
0
LINE
8
Pad
10
3.200000
20
-214.244000
11
3.200000
21
-214.244000
0
LINE
8
Pad
10
3.200000
20
-203.578000
11
3.200000
21
-214.244000
0
LINE
8
Pad
10
3.200000
20
-203.578000
11
3.200000
21
-214.244000
0
LINE
8
Pad
10
3.200000
20
-214.244000
11
3.200000
21
-214.244000
0
LINE
8
Pad
10
0.000000
20
-214.244000
11
0.000000
21
-214.244000
0
LINE
8
Pad
10
3.200000
20
-214.244000
11
0.000000
21
-214.244000
0
LINE
8
Pad
10
3.200000
20
-214.244000
11
0.000000
21
-214.244000
0
LINE
8
Pad
10
0.000000
20
-214.244000
11
0.000000
21
-214.244000
0
LINE
8
Pad
10
0.000000
20
-224.911000
11
0.000000
21
-224.911000
0
LINE
8
Pad
10
0.000000
20
-214.244000
11
0.000000
21
-224.911000
0
LINE
8
Pad
10
0.000000
20
-214.244000
11
0.000000
21
-224.911000
0
LINE
8
Pad
10
0.000000
20
-224.911000
11
0.000000
21
-224.911000
0
LINE
8
Pad
10
3.200000
20
-224.911000
11
3.200000
21
-224.911000
0
LINE
8
Pad
10
0.000000
20
-224.911000
11
3.200000
21
-224.911000
0
LINE
8
Pad
10
0.000000
20
-224.911000
11
3.200000
21
-224.911000
0
LINE
8
Pad
10
3.200000
20
-224.911000
11
3.200000
21
-224.911000
0
LINE
8
Pad
10
3.200000
20
-235.577000
11
3.200000
21
-235.577000
0
LINE
8
Pad
10
3.200000
20
-224.911000
11
3.200000
21
-235.577000
0
LINE
8
Pad
10
3.200000
20
-224.911000
11
3.200000
21
-235.577000
0
LINE
8
Pad
10
3.200000
20
-235.577000
11
3.200000
21
-235.577000
0
LINE
8
Pad
10
0.000000
20
-235.577000
11
0.000000
21
-235.577000
0
LINE
8
Pad
10
3.200000
20
-235.577000
11
0.000000
21
-235.577000
0
LINE
8
Pad
10
3.200000
20
-235.577000
11
0.000000
21
-235.577000
0
LINE
8
Pad
10
0.000000
20
-235.577000
11
0.000000
21
-235.577000
0
LINE
8
Pad
10
0.000000
20
-246.244000
11
0.000000
21
-246.244000
0
LINE
8
Pad
10
0.000000
20
-235.577000
11
0.000000
21
-246.244000
0
LINE
8
Pad
10
0.000000
20
-235.577000
11
0.000000
21
-246.244000
0
LINE
8
Pad
10
0.000000
20
-246.244000
11
10.666700
21
-246.244000
0
LINE
8
Pad
10
10.666700
20
-246.244000
11
10.666700
21
-243.044000
0
LINE
8
Pad
10
10.666700
20
-243.044000
11
21.333300
21
-243.044000
0
LINE
8
Pad
10
21.333300
20
-243.044000
11
21.333300
21
-246.244000
0
LINE
8
Pad
10
21.333300
20
-246.244000
11
32.000000
21
-246.244000
0
LINE
8
Pad
10
32.000000
20
-246.244000
11
32.000000
21
-243.044000
0
LINE
8
Pad
10
32.000000
20
-243.044000
11
42.666600
21
-243.044000
0
LINE
8
Pad
10
42.666600
20
-243.044000
11
42.666600
21
-246.244000
0
LINE
8
Pad
10
42.666600
20
-246.244000
11
53.333300
21
-246.244000
0
LINE
8
Pad
10
53.333300
20
-246.244000
11
53.333300
21
-243.044000
0
LINE
8
Pad
10
53.333300
20
-243.044000
11
63.999900
21
-243.044000
0
LINE
8
Pad
10
63.999900
20
-243.044000
11
63.999900
21
-246.244000
0
LINE
8
Pad
10
63.999900
20
-246.244000
11
74.666600
21
-246.244000
0
LINE
8
Pad
10
74.666600
20
-246.244000
11
74.666600
21
-235.577000
0
LINE
8
Pad
10
74.666600
20
-235.577000
11
71.466600
21
-235.577000
0
LINE
8
Pad
10
71.466600
20
-235.577000
11
71.466600
21
-224.911000
0
LINE
8
Pad
10
71.466600
20
-224.911000
11
74.666600
21
-224.911000
0
LINE
8
Pad
10
74.666600
20
-224.911000
11
74.666600
21
-214.244000
0
LINE
8
Pad
10
74.666600
20
-214.244000
11
71.466600
21
-214.244000
0
LINE
8
Pad
10
71.466600
20
-214.244000
11
71.466600
21
-203.578000
0
LINE
8
Pad
10
71.466600
20
-203.578000
11
74.666600
21
-203.578000
0
LINE
8
Pad
10
74.666600
20
-203.578000
11
74.666600
21
-192.911000
0
LINE
8
Pad
10
74.666600
20
-192.911000
11
71.466600
21
-192.911000
0
LINE
8
Pad
10
71.466600
20
-192.911000
11
71.466600
21
-182.244000
0
LINE
8
Pad
10
71.466600
20
-182.244000
11
74.666600
21
-182.244000
0
LINE
8
Pad
10
74.666600
20
-182.244000
11
74.666600
21
-171.578000
0
LINE
8
Pad
10
74.666600
20
-171.578000
11
63.999900
21
-171.578000
0
LINE
8
Pad
10
63.999900
20
-171.578000
11
63.999900
21
-174.778000
0
LINE
8
Pad
10
63.999900
20
-174.778000
11
53.333300
21
-174.778000
0
LINE
8
Pad
10
53.333300
20
-174.778000
11
53.333300
21
-171.578000
0
LINE
8
Pad
10
53.333300
20
-171.578000
11
42.666600
21
-171.578000
0
LINE
8
Pad
10
42.666600
20
-171.578000
11
42.666600
21
-174.778000
0
LINE
8
Pad
10
42.666600
20
-174.778000
11
32.000000
21
-174.778000
0
LINE
8
Pad
10
32.000000
20
-174.778000
11
32.000000
21
-171.578000
0
LINE
8
Pad
10
32.000000
20
-171.578000
11
21.333300
21
-171.578000
0
LINE
8
Pad
10
21.333300
20
-171.578000
11
21.333300
21
-174.778000
0
LINE
8
Pad
10
21.333300
20
-174.778000
11
10.666700
21
-174.778000
0
LINE
8
Pad
10
10.666700
20
-174.778000
11
10.666700
21
-171.578000
0
LINE
8
Pad
10
10.666700
20
-171.578000
11
0.000000
21
-171.578000
0
LINE
8
Pad
10
0.000000
20
-171.578000
11
0.000000
21
-182.244000
0
LINE
8
Pad
10
0.000000
20
-182.244000
11
3.200000
21
-182.244000
0
LINE
8
Pad
10
3.200000
20
-182.244000
11
3.200000
21
-192.911000
0
LINE
8
Pad
10
3.200000
20
-192.911000
11
0.000000
21
-192.911000
0
LINE
8
Pad
10
0.000000
20
-192.911000
11
0.000000
21
-203.578000
0
LINE
8
Pad
10
0.000000
20
-203.578000
11
3.200000
21
-203.578000
0
LINE
8
Pad
10
3.200000
20
-203.578000
11
3.200000
21
-214.244000
0
LINE
8
Pad
10
3.200000
20
-214.244000
11
0.000000
21
-214.244000
0
LINE
8
Pad
10
0.000000
20
-214.244000
11
0.000000
21
-224.911000
0
LINE
8
Pad
10
0.000000
20
-224.911000
11
3.200000
21
-224.911000
0
LINE
8
Pad
10
3.200000
20
-224.911000
11
3.200000
21
-235.577000
0
LINE
8
Pad
10
3.200000
20
-235.577000
11
0.000000
21
-235.577000
0
LINE
8
Pad
10
0.000000
20
-235.577000
11
0.000000
21
-246.244000
0
LINE
8
Pad
10
0.000000
20
-246.244000
11
10.666700
21
-246.244000
0
LINE
8
Pad
10
10.666700
20
-246.244000
11
10.666700
21
-243.044000
0
LINE
8
Pad
10
10.666700
20
-243.044000
11
21.333300
21
-243.044000
0
LINE
8
Pad
10
21.333300
20
-243.044000
11
21.333300
21
-246.244000
0
LINE
8
Pad
10
21.333300
20
-246.244000
11
32.000000
21
-246.244000
0
LINE
8
Pad
10
32.000000
20
-246.244000
11
32.000000
21
-243.044000
0
LINE
8
Pad
10
32.000000
20
-243.044000
11
42.666600
21
-243.044000
0
LINE
8
Pad
10
42.666600
20
-243.044000
11
42.666600
21
-246.244000
0
LINE
8
Pad
10
42.666600
20
-246.244000
11
53.333300
21
-246.244000
0
LINE
8
Pad
10
53.333300
20
-246.244000
11
53.333300
21
-243.044000
0
LINE
8
Pad
10
53.333300
20
-243.044000
11
63.999900
21
-243.044000
0
LINE
8
Pad
10
63.999900
20
-243.044000
11
63.999900
21
-246.244000
0
LINE
8
Pad
10
63.999900
20
-246.244000
11
74.666600
21
-246.244000
0
LINE
8
Pad
10
74.666600
20
-246.244000
11
74.666600
21
-235.577000
0
LINE
8
Pad
10
74.666600
20
-235.577000
11
71.466600
21
-235.577000
0
LINE
8
Pad
10
71.466600
20
-235.577000
11
71.466600
21
-224.911000
0
LINE
8
Pad
10
71.466600
20
-224.911000
11
74.666600
21
-224.911000
0
LINE
8
Pad
10
74.666600
20
-224.911000
11
74.666600
21
-214.244000
0
LINE
8
Pad
10
74.666600
20
-214.244000
11
71.466600
21
-214.244000
0
LINE
8
Pad
10
71.466600
20
-214.244000
11
71.466600
21
-203.578000
0
LINE
8
Pad
10
71.466600
20
-203.578000
11
74.666600
21
-203.578000
0
LINE
8
Pad
10
74.666600
20
-203.578000
11
74.666600
21
-192.911000
0
LINE
8
Pad
10
74.666600
20
-192.911000
11
71.466600
21
-192.911000
0
LINE
8
Pad
10
71.466600
20
-192.911000
11
71.466600
21
-182.244000
0
LINE
8
Pad
10
71.466600
20
-182.244000
11
74.666600
21
-182.244000
0
LINE
8
Pad
10
74.666600
20
-182.244000
11
74.666600
21
-171.578000
0
LINE
8
Pad
10
74.666600
20
-171.578000
11
63.999900
21
-171.578000
0
LINE
8
Pad
10
63.999900
20
-171.578000
11
63.999900
21
-174.778000
0
LINE
8
Pad
10
63.999900
20
-174.778000
11
53.333300
21
-174.778000
0
LINE
8
Pad
10
53.333300
20
-174.778000
11
53.333300
21
-171.578000
0
LINE
8
Pad
10
53.333300
20
-171.578000
11
42.666600
21
-171.578000
0
LINE
8
Pad
10
42.666600
20
-171.578000
11
42.666600
21
-174.778000
0
LINE
8
Pad
10
42.666600
20
-174.778000
11
32.000000
21
-174.778000
0
LINE
8
Pad
10
32.000000
20
-174.778000
11
32.000000
21
-171.578000
0
LINE
8
Pad
10
32.000000
20
-171.578000
11
21.333300
21
-171.578000
0
LINE
8
Pad
10
21.333300
20
-171.578000
11
21.333300
21
-174.778000
0
LINE
8
Pad
10
21.333300
20
-174.778000
11
10.666700
21
-174.778000
0
LINE
8
Pad
10
10.666700
20
-174.778000
11
10.666700
21
-171.578000
0
LINE
8
Pad
10
10.666700
20
-171.578000
11
0.000000
21
-171.578000
0
LINE
8
Pad
10
0.000000
20
-171.578000
11
0.000000
21
-182.244000
0
LINE
8
Pad
10
0.000000
20
-182.244000
11
3.200000
21
-182.244000
0
LINE
8
Pad
10
3.200000
20
-182.244000
11
3.200000
21
-192.911000
0
LINE
8
Pad
10
3.200000
20
-192.911000
11
0.000000
21
-192.911000
0
LINE
8
Pad
10
0.000000
20
-192.911000
11
0.000000
21
-203.578000
0
LINE
8
Pad
10
0.000000
20
-203.578000
11
3.200000
21
-203.578000
0
LINE
8
Pad
10
3.200000
20
-203.578000
11
3.200000
21
-214.244000
0
LINE
8
Pad
10
3.200000
20
-214.244000
11
0.000000
21
-214.244000
0
LINE
8
Pad
10
0.000000
20
-214.244000
11
0.000000
21
-224.911000
0
LINE
8
Pad
10
0.000000
20
-224.911000
11
3.200000
21
-224.911000
0
LINE
8
Pad
10
3.200000
20
-224.911000
11
3.200000
21
-235.577000
0
LINE
8
Pad
10
3.200000
20
-235.577000
11
0.000000
21
-235.577000
0
LINE
8
Pad
10
0.000000
20
-235.577000
11
0.000000
21
-246.244000
0
LINE
8
Pad
10
0.000000
20
-246.244000
11
0.000000
21
-246.244000
0
LINE
8
Pad
10
0.000000
20
-224.911000
11
0.000000
21
-224.911000
0
LINE
8
Pad
10
0.000000
20
-246.244000
11
0.000000
21
-224.911000
0
LINE
8
Pad
10
0.000000
20
-246.244000
11
0.000000
21
-224.911000
0
LINE
8
Pad
10
0.000000
20
-224.911000
11
0.000000
21
-224.911000
0
LINE
8
Pad
10
68.266600
20
-224.911000
11
68.266600
21
-224.911000
0
LINE
8
Pad
10
0.000000
20
-224.911000
11
68.266600
21
-224.911000
0
LINE
8
Pad
10
0.000000
20
-224.911000
11
68.266600
21
-224.911000
0
LINE
8
Pad
10
68.266600
20
-224.911000
11
68.266600
21
-224.911000
0
LINE
8
Pad
10
68.266600
20
-246.244000
11
68.266600
21
-246.244000
0
LINE
8
Pad
10
68.266600
20
-224.911000
11
68.266600
21
-246.244000
0
LINE
8
Pad
10
68.266600
20
-224.911000
11
68.266600
21
-246.244000
0
LINE
8
Pad
10
68.266600
20
-249.444000
11
68.266600
21
-249.444000
0
LINE
8
Pad
10
68.266600
20
-246.244000
11
68.266600
21
-246.244000
0
LINE
8
Pad
10
68.266600
20
-249.444000
11
68.266600
21
-246.244000
0
LINE
8
Pad
10
68.266600
20
-249.444000
11
68.266600
21
-246.244000
0
LINE
8
Pad
10
50.133300
20
-249.444000
11
50.133300
21
-249.444000
0
LINE
8
Pad
10
68.266600
20
-249.444000
11
68.266600
21
-249.444000
0
LINE
8
Pad
10
50.133300
20
-249.444000
11
68.266600
21
-249.444000
0
LINE
8
Pad
10
50.133300
20
-249.444000
11
68.266600
21
-249.444000
0
LINE
8
Pad
10
50.133300
20
-246.244000
11
50.133300
21
-246.244000
0
LINE
8
Pad
10
50.133300
20
-249.444000
11
50.133300
21
-249.444000
0
LINE
8
Pad
10
50.133300
20
-246.244000
11
50.133300
21
-249.444000
0
LINE
8
Pad
10
50.133300
20
-246.244000
11
50.133300
21
-249.444000
0
LINE
8
Pad
10
18.133300
20
-246.244000
11
18.133300
21
-246.244000
0
LINE
8
Pad
10
50.133300
20
-246.244000
11
50.133300
21
-246.244000
0
LINE
8
Pad
10
18.133300
20
-246.244000
11
50.133300
21
-246.244000
0
LINE
8
Pad
10
18.133300
20
-246.244000
11
50.133300
21
-246.244000
0
LINE
8
Pad
10
18.133300
20
-249.444000
11
18.133300
21
-249.444000
0
LINE
8
Pad
10
18.133300
20
-246.244000
11
18.133300
21
-246.244000
0
LINE
8
Pad
10
18.133300
20
-249.444000
11
18.133300
21
-246.244000
0
LINE
8
Pad
10
18.133300
20
-249.444000
11
18.133300
21
-246.244000
0
LINE
8
Pad
10
0.000000
20
-249.444000
11
0.000000
21
-249.444000
0
LINE
8
Pad
10
18.133300
20
-249.444000
11
18.133300
21
-249.444000
0
LINE
8
Pad
10
0.000000
20
-249.444000
11
18.133300
21
-249.444000
0
LINE
8
Pad
10
0.000000
20
-249.444000
11
18.133300
21
-249.444000
0
LINE
8
Pad
10
0.000000
20
-246.244000
11
0.000000
21
-246.244000
0
LINE
8
Pad
10
0.000000
20
-249.444000
11
0.000000
21
-249.444000
0
LINE
8
Pad
10
0.000000
20
-246.244000
11
0.000000
21
-249.444000
0
LINE
8
Pad
10
0.000000
20
-246.244000
11
0.000000
21
-249.444000
0
LINE
8
Pad
10
0.000000
20
-246.244000
11
0.000000
21
-224.911000
0
LINE
8
Pad
10
0.000000
20
-224.911000
11
68.266600
21
-224.911000
0
LINE
8
Pad
10
68.266600
20
-224.911000
11
68.266600
21
-246.244000
0
LINE
8
Pad
10
68.266600
20
-249.444000
11
68.266600
21
-246.244000
0
LINE
8
Pad
10
50.133300
20
-249.444000
11
68.266600
21
-249.444000
0
LINE
8
Pad
10
50.133300
20
-246.244000
11
50.133300
21
-249.444000
0
LINE
8
Pad
10
18.133300
20
-246.244000
11
50.133300
21
-246.244000
0
LINE
8
Pad
10
18.133300
20
-249.444000
11
18.133300
21
-246.244000
0
LINE
8
Pad
10
0.000000
20
-249.444000
11
18.133300
21
-249.444000
0
LINE
8
Pad
10
0.000000
20
-246.244000
11
0.000000
21
-249.444000
0
LINE
8
Pad
10
0.000000
20
-246.244000
11
0.000000
21
-224.911000
0
LINE
8
Pad
10
0.000000
20
-224.911000
11
68.266600
21
-224.911000
0
LINE
8
Pad
10
68.266600
20
-224.911000
11
68.266600
21
-246.244000
0
LINE
8
Pad
10
68.266600
20
-249.444000
11
68.266600
21
-246.244000
0
LINE
8
Pad
10
50.133300
20
-249.444000
11
68.266600
21
-249.444000
0
LINE
8
Pad
10
50.133300
20
-246.244000
11
50.133300
21
-249.444000
0
LINE
8
Pad
10
18.133300
20
-246.244000
11
50.133300
21
-246.244000
0
LINE
8
Pad
10
18.133300
20
-249.444000
11
18.133300
21
-246.244000
0
LINE
8
Pad
10
0.000000
20
-249.444000
11
18.133300
21
-249.444000
0
LINE
8
Pad
10
0.000000
20
-246.244000
11
0.000000
21
-249.444000
0
LINE
8
Shape2DView
10
13.866700
20
-243.044000
11
13.866700
21
-246.244000
0
LINE
8
Shape2DView
10
3.200000
20
-243.044000
11
13.866700
21
-243.044000
0
LINE
8
Shape2DView
10
3.200000
20
-243.044000
11
3.200000
21
-235.577000
0
LINE
8
Shape2DView
10
3.200000
20
-235.577000
11
0.000000
21
-235.577000
0
LINE
8
Shape2DView
10
0.000000
20
-235.577000
11
0.000000
21
-224.911000
0
LINE
8
Shape2DView
10
0.000000
20
-224.911000
11
3.200000
21
-224.911000
0
LINE
8
Shape2DView
10
3.200000
20
-224.911000
11
3.200000
21
-214.244000
0
LINE
8
Shape2DView
10
3.200000
20
-214.244000
11
-5.333330
21
-214.244000
0
LINE
8
Shape2DView
10
-5.333330
20
-214.244000
11
-5.333330
21
-203.578000
0
LINE
8
Shape2DView
10
-5.333330
20
-203.578000
11
3.200000
21
-203.578000
0
LINE
8
Shape2DView
10
3.200000
20
-203.578000
11
3.200000
21
-192.911000
0
LINE
8
Shape2DView
10
3.200000
20
-192.911000
11
0.000000
21
-192.911000
0
LINE
8
Shape2DView
10
0.000000
20
-192.911000
11
0.000000
21
-182.244000
0
LINE
8
Shape2DView
10
0.000000
20
-182.244000
11
3.200000
21
-182.244000
0
LINE
8
Shape2DView
10
3.200000
20
-182.244000
11
3.200000
21
-174.778000
0
LINE
8
Shape2DView
10
13.866700
20
-174.778000
11
3.200000
21
-174.778000
0
LINE
8
Shape2DView
10
13.866700
20
-171.578000
11
13.866700
21
-174.778000
0
LINE
8
Shape2DView
10
13.866700
20
-171.578000
11
21.333300
21
-171.578000
0
LINE
8
Shape2DView
10
21.333300
20
-174.778000
11
21.333300
21
-171.578000
0
LINE
8
Shape2DView
10
18.133300
20
-174.778000
11
21.333300
21
-174.778000
0
LINE
8
Shape2DView
10
18.133300
20
-192.911000
11
18.133300
21
-174.778000
0
LINE
8
Shape2DView
10
21.333300
20
-192.911000
11
18.133300
21
-192.911000
0
LINE
8
Shape2DView
10
21.333300
20
-203.578000
11
21.333300
21
-192.911000
0
LINE
8
Shape2DView
10
16.000000
20
-203.578000
11
21.333300
21
-203.578000
0
LINE
8
Shape2DView
10
16.000000
20
-214.244000
11
16.000000
21
-203.578000
0
LINE
8
Shape2DView
10
21.333300
20
-214.244000
11
16.000000
21
-214.244000
0
LINE
8
Shape2DView
10
21.333300
20
-224.911000
11
21.333300
21
-214.244000
0
LINE
8
Shape2DView
10
18.133300
20
-224.911000
11
21.333300
21
-224.911000
0
LINE
8
Shape2DView
10
18.133300
20
-243.044000
11
18.133300
21
-224.911000
0
LINE
8
Shape2DView
10
21.333300
20
-243.044000
11
18.133300
21
-243.044000
0
LINE
8
Shape2DView
10
21.333300
20
-246.244000
11
21.333300
21
-243.044000
0
LINE
8
Shape2DView
10
13.866700
20
-246.244000
11
21.333300
21
-246.244000
0
LINE
8
Shape2DView
10
3.200000
20
-235.577000
11
0.000000
21
-235.577000
0
LINE
8
Shape2DView
10
0.000000
20
-235.577000
11
0.000000
21
-224.911000
0
LINE
8
Shape2DView
10
0.000000
20
-224.911000
11
3.200000
21
-224.911000
0
LINE
8
Shape2DView
10
3.200000
20
-224.911000
11
3.200000
21
-214.244000
0
LINE
8
Shape2DView
10
3.200000
20
-214.244000
11
0.000000
21
-214.244000
0
LINE
8
Shape2DView
10
0.000000
20
-214.244000
11
0.000000
21
-203.578000
0
LINE
8
Shape2DView
10
0.000000
20
-203.578000
11
3.200000
21
-203.578000
0
LINE
8
Shape2DView
10
3.200000
20
-203.578000
11
3.200000
21
-192.911000
0
LINE
8
Shape2DView
10
3.200000
20
-192.911000
11
0.000000
21
-192.911000
0
LINE
8
Shape2DView
10
0.000000
20
-192.911000
11
0.000000
21
-182.244000
0
LINE
8
Shape2DView
10
0.000000
20
-182.244000
11
3.200000
21
-182.244000
0
LINE
8
Shape2DView
10
3.200000
20
-182.244000
11
3.200000
21
-174.778000
0
LINE
8
Shape2DView
10
3.200000
20
-174.778000
11
13.866700
21
-174.778000
0
LINE
8
Shape2DView
10
13.866700
20
-174.778000
11
13.866700
21
-171.578000
0
LINE
8
Shape2DView
10
13.866700
20
-171.578000
11
21.333300
21
-171.578000
0
LINE
8
Shape2DView
10
21.333300
20
-171.578000
11
21.333300
21
-246.244000
0
LINE
8
Shape2DView
10
21.333300
20
-246.244000
11
13.866700
21
-246.244000
0
LINE
8
Shape2DView
10
13.866700
20
-246.244000
11
13.866700
21
-243.044000
0
LINE
8
Shape2DView
10
13.866700
20
-243.044000
11
3.200000
21
-243.044000
0
LINE
8
Shape2DView
10
3.200000
20
-243.044000
11
3.200000
21
-235.577000
0
LINE
8
Shape2DView
10
21.333300
20
-249.444000
11
13.866700
21
-249.444000
0
LINE
8
Shape2DView
10
13.866700
20
-249.444000
11
13.866700
21
-246.244000
0
LINE
8
Shape2DView
10
13.866700
20
-246.244000
11
3.200000
21
-246.244000
0
LINE
8
Shape2DView
10
3.200000
20
-246.244000
11
3.200000
21
-256.911000
0
LINE
8
Shape2DView
10
3.200000
20
-256.911000
11
-3.200000
21
-256.911000
0
LINE
8
Shape2DView
10
-3.200000
20
-256.911000
11
-3.200000
21
-267.577000
0
LINE
8
Shape2DView
10
-3.200000
20
-267.577000
11
3.200000
21
-267.577000
0
LINE
8
Shape2DView
10
3.200000
20
-267.577000
11
3.200000
21
-278.244000
0
LINE
8
Shape2DView
10
3.200000
20
-278.244000
11
0.000000
21
-278.244000
0
LINE
8
Shape2DView
10
0.000000
20
-278.244000
11
0.000000
21
-288.911000
0
LINE
8
Shape2DView
10
0.000000
20
-288.911000
11
3.200000
21
-288.911000
0
LINE
8
Shape2DView
10
3.200000
20
-288.911000
11
3.200000
21
-299.577000
0
LINE
8
Shape2DView
10
3.200000
20
-299.577000
11
-3.200000
21
-299.577000
0
LINE
8
Shape2DView
10
-3.200000
20
-299.577000
11
-3.200000
21
-310.244000
0
LINE
8
Shape2DView
10
-3.200000
20
-310.244000
11
3.200000
21
-310.244000
0
LINE
8
Shape2DView
10
3.200000
20
-310.244000
11
3.200000
21
-320.911000
0
LINE
8
Shape2DView
10
3.200000
20
-320.911000
11
13.866700
21
-320.911000
0
LINE
8
Shape2DView
10
13.866700
20
-320.911000
11
13.866700
21
-317.711000
0
LINE
8
Shape2DView
10
13.866700
20
-317.711000
11
21.333300
21
-317.711000
0
LINE
8
Shape2DView
10
21.333300
20
-310.244000
11
21.333300
21
-317.711000
0
LINE
8
Shape2DView
10
18.133300
20
-310.244000
11
21.333300
21
-310.244000
0
LINE
8
Shape2DView
10
18.133300
20
-299.577000
11
18.133300
21
-310.244000
0
LINE
8
Shape2DView
10
21.333300
20
-299.577000
11
18.133300
21
-299.577000
0
LINE
8
Shape2DView
10
21.333300
20
-267.577000
11
21.333300
21
-299.577000
0
LINE
8
Shape2DView
10
18.133300
20
-267.577000
11
21.333300
21
-267.577000
0
LINE
8
Shape2DView
10
18.133300
20
-256.911000
11
18.133300
21
-267.577000
0
LINE
8
Shape2DView
10
21.333300
20
-256.911000
11
18.133300
21
-256.911000
0
LINE
8
Shape2DView
10
21.333300
20
-249.444000
11
21.333300
21
-256.911000
 0 
ENDSEC
 0 
EOF